<svg xmlns="http://www.w3.org/2000/svg" width="32" height="32" viewBox="0 0 32 32"><g transform="translate(-360.945 -237.754)"><circle cx="16" cy="16" r="16" transform="translate(360.945 237.753)" fill="#00b900"/><path d="M387.687 252.732c0-4.779-4.791-8.668-10.681-8.668s-10.681 3.888-10.681 8.668c0 4.285 3.8 7.873 8.933 8.552.348.075.821.229.941.527a2.193 2.193 0 01.035.966l-.152.914c-.047.27-.215 1.056.925.576a34.494 34.494 0 008.392-6.2 7.712 7.712 0 002.289-5.333" fill="#fff"/><path d="M374.833 250.417h-.749a.208.208 0 00-.208.208v4.654a.208.208 0 00.208.208h.749a.208.208 0 00.208-.208v-4.654a.208.208 0 00-.208-.208m5.157 0h-.749a.208.208 0 00-.208.208v2.765l-2.133-2.88a.208.208 0 00-.016-.021l-.013-.013-.011-.009h-.005l-.011-.007h-.006l-.011-.006h-.844a.208.208 0 00-.208.208v4.654a.208.208 0 00.208.208h.749a.208.208 0 00.208-.208v-2.799l2.135 2.884a.208.208 0 00.053.051l.013.008h.046a.2.2 0 00.053.007h.749a.208.208 0 00.208-.208v-4.654a.208.208 0 00-.208-.208m-6.962 3.929h-2.036v-3.7a.208.208 0 00-.208-.208h-.749a.208.208 0 00-.208.208v4.654a.208.208 0 00.058.144.207.207 0 00.144.058h2.993a.208.208 0 00.208-.208v-.749a.208.208 0 00-.208-.208m11.102-2.729a.208.208 0 00.208-.208v-.749a.208.208 0 00-.208-.208h-2.993a.207.207 0 00-.144.059.209.209 0 00-.058.143v4.653a.207.207 0 00.058.144.207.207 0 00.144.058h2.993a.208.208 0 00.208-.208v-.749a.208.208 0 00-.208-.208h-2.036v-.787h2.036a.208.208 0 00.208-.208v-.749a.208.208 0 00-.208-.208h-2.036v-.787z" fill="#00b900"/></g></svg>