<svg xmlns="http://www.w3.org/2000/svg" width="108" height="108" viewBox="0 0 108 108"><defs><style>.b{fill:#e7190a}</style></defs><path fill="#fff" d="M0 0h108v108H0z"/><path class="b" d="M30.334 21.001v4.546h41v41.365h4.92V21.001z"/><path class="b" d="M44.257 32.899c0-1.412.771-.98 1.629-1.513s1.667-1.019 3.872-2.156a12.064 12.064 0 014.3-1.5 5.76 5.76 0 013.119.965c.839.754 6.39 3.68 7.337 4.527s2.26 1.824 2.26 3.968c0 4.68-7.115 5.68-7.115 7.334 0 1.5 2.364.749 2.259 5.7-.04 1.825-1.065 1.038-1.509 2.159-.43 1.075-.53 8.167-.53 9.244 0 1.732-.536 5.284-4.085 5.284-4.535 0-7.873-7.006-7.972-7.747-.245-1.748-.443-2.9-.54-4.426a14.967 14.967 0 01-2.039 1.521 9.368 9.368 0 01-4.316 1.387c-1.629 0-3.984-1.6-4.845-2.793s-3.653-4.31-3.865-5.383 1.4-.969 2.679-1.4c2.554-.853 6.9-3.445 8.5-5.925 1.065-1.6 1.434-4.311 1.525-6.031a6.063 6.063 0 00-.661-3.218"/><path d="M24.867 89.728a1.772 1.772 0 01-1.31-.482 2.441 2.441 0 01-.411-1.328c0-.18.019-.5.045-.907.021-.291.041-.624.069-.98a34.818 34.818 0 00-.021-3.585c-.021-.395-.059-.983-.059-1.11 0-.185-.009-.4-.017-.581a1.615 1.615 0 00-.039-.415 6.496 6.496 0 01-.093-.351c-.052-.255 0-.91-.032-1.3a.558.558 0 01.1-.4.663.663 0 01.473-.248.979.979 0 01.153.018h.025a4.128 4.128 0 011.361.773l.042.031c.32.229 1.151.859 1.151 1.115a1.189 1.189 0 01-.063.295 4.7 4.7 0 00-.209 1.56 10.931 10.931 0 01-.164 1.606c-.116.766-.192 1.273.049 1.492a.7.7 0 00.489.14.445.445 0 00.2-.07c.065-.1.146-.119.209-.065-.008.078-.107.377-.149.542-.06.221-.122.444-.176.66a5.888 5.888 0 01-.319 1.011 7.855 7.855 0 00-.223.591c-.116.33-.11.769-.247 1.248a.936.936 0 01-.842.738m5.236-7.735c-.039 0-.124-.081-.145-.1 0-.012.1-.072.106-.094.033-.123.055-.2-.1-.5a1.478 1.478 0 00-.521-.532c-.057-.037-.107-.077-.148-.109l-.087-.069a2.072 2.072 0 01-.673-.7c-.124-.26-.137-.4-.046-.487a.293.293 0 01.138-.021 3.683 3.683 0 01.824.163.914.914 0 00.228.025 5.412 5.412 0 001.505-.4 10.678 10.678 0 012.313-.618 1.106 1.106 0 01.124 0 1.686 1.686 0 011.609 1.161c.287.972-.677 1.448-1.1 1.609a11.821 11.821 0 01-1.786.149l-.4.016a3.924 3.924 0 00-1.294.333 1.8 1.8 0 01-.543.168m4.251 6.923a13.176 13.176 0 01-3.031-.249l-.244-.047c-.51-.088-1.035.1-1.583-.225a1.86 1.86 0 01-.878-1.87 1.533 1.533 0 01.257-.671c.1-.143.163-.206.237-.3a.261.261 0 01.2-.071.234.234 0 01.115.033c.037.031.028.052.052.087a1.286 1.286 0 00.393.353 11.36 11.36 0 003.118.476 5.682 5.682 0 001.381-.146.241.241 0 01.063-.026 1.282 1.282 0 01.245-.052 1.147 1.147 0 01.928.266c.237.2.126.656.065 1.02a2.838 2.838 0 01-.218.663l-.033.067c-.158.334-.279.652-1.063.693m7.717.279a2.392 2.392 0 01-.25 0 2.345 2.345 0 01-1.281-.256 1.068 1.068 0 01-.5-.886 6.989 6.989 0 01.576-1.4 3.876 3.876 0 00.4-.633c.232-.443.437-.78.637-1.1.278-.456.632-.966 1.013-1.643a16.446 16.446 0 00.773-1.573 7.664 7.664 0 01.383-.785c.158-.271.267-.564.4-.841.073-.155.1-.272.146-.376a2.67 2.67 0 00.119-.364.593.593 0 01.049-.162c.034-.052.068-.124.107-.176s.086-.12.135-.179a3.456 3.456 0 01.535-.49 2.826 2.826 0 01.314-.143.87.87 0 01.327-.025.694.694 0 01.371.166c.1.084.219.259.309.345a2.424 2.424 0 00.478.265 2.8 2.8 0 01.454.371l.036.038a1.341 1.341 0 01.334.406 1.576 1.576 0 01-.007.663 1.766 1.766 0 01-.527.683 1.965 1.965 0 00-.839 1.6c.015.089.042.345.278.345a.543.543 0 00.164-.038.788.788 0 01.249-.047 1.183 1.183 0 01.671.289c.5.374.381.767.21 1.35-.022.063-.036.127-.061.192a4.44 4.44 0 00-.134.732c-.006.078-.017.16-.031.242-.093.594-.114.839.232 1.046a1.438 1.438 0 00.754.239 1.537 1.537 0 00.652-.156 2.3 2.3 0 00.653-.423l.046-.042a2.668 2.668 0 00.5-.762c.155-.369.206-.5.33-.789a2.593 2.593 0 00.156-.344 1.138 1.138 0 00.071-.213 1.464 1.464 0 00.044-.156v-.124c0-.041-.006-.052.039-.075a.137.137 0 01.2.061 1.27 1.27 0 01.106.2 2.653 2.653 0 01.243.654c.013.135.171.9.155 1.073-.042.484.239.895.006 1.5-.341.88-.865 1.072-2.368 1.535-.11.037-1.307.194-1.476.209a3.252 3.252 0 01-.234.007c-.731 0-1.663-.056-2.014-.5a2.747 2.747 0 01-.387-1.317 3.139 3.139 0 01.063-.6 4.893 4.893 0 00.119-1.185c0-.274-.055-.434-.356-.434-.154 0-.156.038-.326.1-.228.081-.483.478-1.05 1.406-.2.328-.34.6-.617 1.073a6.671 6.671 0 01-.578.975 1.567 1.567 0 01-.8.477m23.892-.577c-.506-.037-.84-.447-1.266-.965a37.268 37.268 0 00-.985-1.147 62.104 62.104 0 01-1.107-1.257l-.575-.678c-1.654-1.983-1.932-2.268-2.063-2.29a2.273 2.273 0 00-.727.231c-.367.177-.73.376-1.008.541-.2.114-.366.2-.438.235-.128.048-.248.1-.367.159-.1.052-.179.126-.273.172a1.476 1.476 0 01-.86-.008.764.764 0 01-.379-.2 1.708 1.708 0 01-.124-.217 2.234 2.234 0 01-.145-.239.646.646 0 00-.055-.085 6.939 6.939 0 01-.451-.865 1.452 1.452 0 01-.138-.531c.062-.51.446-1.1.709-1.16a1.421 1.421 0 01.488-.01c.188.015.176.116.36.107a1.941 1.941 0 00.485-.127 5.578 5.578 0 00.942-.42c.128-.071.257-.146.39-.224s.3-.2.485-.318a3.741 3.741 0 011.5-.787 2.158 2.158 0 01.9.438 3.108 3.108 0 01.489.65c.119.211.3.444.449.675a3.71 3.71 0 01.164.5 1.686 1.686 0 00.2.278 30.395 30.395 0 001.781 2.012c.177.177.352.353.535.528.06.056.17.171.3.3l.016.014a3.39 3.39 0 00.305.311 1.587 1.587 0 00.337.17 1.186 1.186 0 01.286.236c.312.427.59.706.876 1.155a2.12 2.12 0 01.273.784c.037.418-.454 1.881-.865 1.987a1.41 1.41 0 01-.447.041m7.57 1.144a2.4 2.4 0 01-1.854-1.866 2.917 2.917 0 01.67-1.475l.018-.031a8.908 8.908 0 00.775-1.2c.131-.219.231-.363.326-.5a3.816 3.816 0 00.327-.514 3.277 3.277 0 00.313-.739 3.127 3.127 0 01.147-.427c.149-.361.185-.684.349-1.03.1-.208.2-.426.305-.653.085-.187.169-.387.256-.585.187-.43.375-.862.564-1.225.04-.075.08-.147.116-.218a3.587 3.587 0 01.688-.879 1.443 1.443 0 011-.491h.03c.552.013 1.185.815 1.6 1.561a1.56 1.56 0 01.208 1.008 6.777 6.777 0 01-1 1.6 8.442 8.442 0 00-.786 1.176.243.243 0 00.009.205c.085.165.334.22.776.31a2.6 2.6 0 01.736.221c.177.122.216.5.263.871.084.793.211 1.878 1.694 1.878.076 0 .151-.006.237-.01a2.928 2.928 0 001.748-1.427c.171-.274.35-.509.5-.715a1.618 1.618 0 00.283-.764 2.687 2.687 0 00.1-.65 1.956 1.956 0 01.048-.388c.048-.093.2-.093.32-.033a6.525 6.525 0 01.474 2.948 4.59 4.59 0 01-3.733 4.027h-.061a3.541 3.541 0 01-2.852-1.772 5.224 5.224 0 01-.112-1.01c-.042-.776-.085-1.448-.527-1.448h-.018c-1.2.056-1.676.982-2.178 1.963l-.223.428a4.275 4.275 0 01-1.263 1.792.6.6 0 01-.272.064M62.629 78.662a3.306 3.306 0 012.192.766c.366.291 1.185 1.058.381 1.782-.29.262-1.018-.321-1.411-.909-.9-1.371-1.152-1.452-1.162-1.639m2.251-.328a4.447 4.447 0 012.178.5 1.369 1.369 0 01.391 1.258.7.7 0 01-.654.567c-.384.006-.891-.788-1.242-1.307-.3-.432-.5-.823-.673-1.02"/></svg>