<svg xmlns="http://www.w3.org/2000/svg" width="108" height="108" viewBox="0 0 108 108"><defs><style>.b{fill:#231815}.c{fill:#1b120f}.d{fill:#e60012}</style></defs><path fill="#fff" d="M0 0h108v108H0z"/><path class="b" d="M84.755 62.14l-.29-.175a.872.872 0 01-.175-.492v-.05a.644.644 0 01.142-.171.75.75 0 01.51.013.325.325 0 01.181.255.134.134 0 00.067.1.1.1 0 00.088-.02.306.306 0 00.011-.295l-.017-.056a.638.638 0 01-.01-.077.177.177 0 00-.046-.154 2.715 2.715 0 00-.682-.092l-.219.061-.11.043a.537.537 0 00-.266.338l-.041.1a1.011 1.011 0 00-.019.2.916.916 0 00.189.562 1.675 1.675 0 00.469.38l.341.244a.465.465 0 01.107.327l.016.147a1.367 1.367 0 00-.06.154c-.047.079-.139.094-.245.113l-.115.023a.613.613 0 01-.541-.273l-.037-.1c-.019-.083-.045-.2-.188-.217a.058.058 0 00-.033.006.123.123 0 00-.062.1c0 .011.087.44.087.44a.71.71 0 00.357.214l.034.01a1.088 1.088 0 001.1-.351.621.621 0 00.083-.328l.012-.132a.8.8 0 00-.168-.488 1.188 1.188 0 00-.47-.359zm-1.478 1.359l-.14-.229a3.449 3.449 0 00-.2-.629l-.176-.51a8.177 8.177 0 01-.328-.976.107.107 0 01-.008-.041v-.021a.092.092 0 00-.087-.1.079.079 0 00-.041.012l-.1.065-.15.1c-.013.021-.167.456-.167.456a12.818 12.818 0 01-.771 1.874c-.013.056-.031.062-.1.069a.2.2 0 00-.18.095c-.006.074.035.113.088.113l.334.02.4.019a.124.124 0 00.108-.118.152.152 0 00-.171-.106h-.049l-.01-.006v-.139c0 .024.03-.109.03-.109a1.616 1.616 0 01.174-.521c.04-.106.114-.111.276-.1h.2l.129.016c.077 0 .115 0 .146.051l.109.257a.971.971 0 01.133.423.514.514 0 01-.006.079c0 .027-.006.032-.065.042a.164.164 0 00-.149.1.048.048 0 000 .019.055.055 0 00.011.032.193.193 0 00.193.068h.067l.679-.014c.057-.021.078-.048.082-.078v-.015a.094.094 0 00-.026-.065 2.78 2.78 0 00-.235-.133zm-.985-1.026l-.2-.01a.31.31 0 01-.2-.035l.065-.189.109-.357.032-.067c.011-.033.016-.033.022-.038l.054.1s.166.5.189.573c-.01.017-.028.023-.086.023zm-8.304-1.341zm.004 0a2.118 2.118 0 00-.6-.121l-.071-.007a1.725 1.725 0 00-.827.3l-.054.059a1.522 1.522 0 00-.514.96l.009.114a1.245 1.245 0 00.313.895 1.067 1.067 0 00.522.4l.175.086a1.571 1.571 0 001.564-.462.628.628 0 00.231-.4l.081-.221a1.194 1.194 0 00.013-.141c0-.073.008-.145.008-.215a1.2 1.2 0 00-.03-.286 1.351 1.351 0 00-.82-.961zm-1.015.207l.144-.039.092-.03.35.008c.195.067.429.146.513.363l.2.416c0 .032.019.26.019.26a2.947 2.947 0 01.024.316.966.966 0 01-.023.22.983.983 0 01-.414.634c-.008 0-.352.1-.352.1h-.115l-.217.015a.42.42 0 01-.176-.088l-.147-.078-.142-.213-.161-.248a1.476 1.476 0 01-.1-.548v-.117l.008-.129a.775.775 0 01.057-.318l.184-.284.1-.113c.047-.065.088-.121.151-.136zm15.628 2.198h-.054a.247.247 0 01-.068-.176l-.02-.112c0 .017.011-.165.011-.165l.007-.478.008-.3.005-.315a3.309 3.309 0 01.056-.72.022.022 0 000-.006l.037-.007.1-.034a.43.43 0 00.027-.089l-.076-.09c-.01-.012-.017-.011-.033-.012l-.78-.023a.054.054 0 00-.045.02l-.039.047c-.012.013-.026.025-.022.041s.006.024.023.031l.161.064.084.024a1.809 1.809 0 01.023.608v.171c.015.118.015.173-.048.2-.375.023-.785.008-1.182-.006l-.166-.005a.332.332 0 01-.026-.132c0-.037 0-.075.008-.114v-.2l-.005-.052c-.005-.058-.011-.119-.011-.177a.342.342 0 01.085-.26.39.39 0 00.055-.01l.137-.057a.113.113 0 00-.051-.145c-.03-.009-.9-.025-.9-.025a.087.087 0 00-.038.013c-.058.038-.076.081-.052.13.007.014.008.019.023.024l.148.041.11.032a.683.683 0 01.061.447v.264l.008.2v.207a2.763 2.763 0 010 .617l-.02.308-.023.166c-.008.015-.027.021-.08.03l-.151.078c-.021.011-.02.036-.016.059a.1.1 0 00.051.069c.026.007.2.012.2.012l.358-.006a.468.468 0 00.348-.015.054.054 0 00.027-.039.216.216 0 000-.034c0-.11-.1-.126-.148-.135l-.076-.027a1.517 1.517 0 01-.052-.42l.009-.19v-.335c.013-.024.031-.029.092-.029l.128-.021c-.026.006.437 0 .437 0l.78.013c.02.01.025.015 0 .1l-.012.161a3.32 3.32 0 01-.016.762c-.009.012-.029.016-.095.017l-.163.048a.1.1 0 000 .149.067.067 0 00.044.016l.4.007.161.009.37-.008a.11.11 0 00.1-.1c-.039-.139-.152-.124-.214-.116zm-2.004-1.776zm3.659 1.829a.2.2 0 00-.157-.084c-.06-.008-.072-.015-.079-.042a2.46 2.46 0 01-.05-.523 3.459 3.459 0 01.02-.371v-.843l.016-.226.014-.215c.008-.021.023-.027.078-.038a.167.167 0 00.148-.1.055.055 0 00-.009-.049.215.215 0 00-.217-.07h-.084l-.329-.005-.268-.011-.045.01c-.036.007-.117.022-.117.108a.147.147 0 00.181.084h.072c.054.007.077.06.1.123v.622l-.007 1.018-.005.237a.5.5 0 01-.027.271c-.013.03-.034.034-.1.037a.18.18 0 00-.192.1.066.066 0 00.009.055c.018.027.059.09.127.073l.43-.017.413-.013a.047.047 0 00.04-.024l.031-.047a.053.053 0 00.01-.03.058.058 0 00-.003-.03zm-18.88.05h-.016a.394.394 0 01-.157-.317v-.043l-.008-.243.006-.294.008-.292.016-.374v-.216l.011-.506c.01-.028.024-.031.086-.033l.124-.029a.1.1 0 00.037-.074v-.008a.126.126 0 00-.06-.088c-.029-.009-.511-.025-.511-.025l-.244-.008c-.083 0-.187-.006-.219.1a.054.054 0 000 .033.133.133 0 00.154.078h.048c.042.014.075.058.1.132l-.016.312-.01.468c-.007 0-.024.012-.03.012l-.534.039-.784-.009c-.007 0-.023-.014-.023-.021l.008-.859c.01-.018.036-.03.087-.049l.127-.08a.037.037 0 00.019-.035c0-.015-.012-.025-.023-.036l-.048-.047a2.09 2.09 0 00-.262-.034.492.492 0 01-.256-.038 5.553 5.553 0 00-.358.008.133.133 0 00-.041.017.122.122 0 00-.074.1.2.2 0 00.234.115h.08c.037.007.048.035.063.11l-.011 1.42a2.938 2.938 0 01-.054.741c-.009.03-.024.034-.09.035l-.147.039a.051.051 0 00-.037.033.049.049 0 00.009.049l.062.086c.01.014.015.009.032.009l.649.024.031.006a.32.32 0 00.267-.026c.014-.01.021-.013.021-.026v-.009l-.019-.1-.122-.051c-.037 0-.06-.007-.067-.02s-.122-.4-.122-.4l.012-.279.006-.348c0-.016 0-.04.02-.046s.5 0 .5 0l.854.01a.072.072 0 01.035.041v.557a1.977 1.977 0 01-.032.388c-.009.047-.03.052-.094.062l-.151.07c-.015.006-.016.012-.021.027a.025.025 0 000 .007c0 .011.01.02.018.032l.031.047a.055.055 0 00.036.024 2.007 2.007 0 00.578.008l.267.039a.058.058 0 00.039-.009.122.122 0 00.065-.1.129.129 0 000-.026.131.131 0 00-.099-.08zm8.87-1.355l-.054-.036v-.009l.124-.154.159-.207v-.139a.591.591 0 00-.234-.55l-.212-.075-.149-.043a6.531 6.531 0 00-1.109.017h-.042c-.055 0-.148 0-.177.1a.058.058 0 000 .041.121.121 0 00.136.06h.032c.113.088.112.25.112.421v.161l-.015.252a4.184 4.184 0 000 .82v.059c-.005.238-.01.484-.206.6a.1.1 0 00-.039.091.106.106 0 00.059.076.471.471 0 00.287 0l.064.006.26-.009a1.257 1.257 0 00.473.025l.1-.011a.888.888 0 00.656-.258 1.09 1.09 0 00.212-.59.663.663 0 00-.047-.247.874.874 0 00-.39-.401zm-.936-.576l.024-.429c.035-.033.1-.028.2-.016l.149.006a.591.591 0 01.329.368.516.516 0 01-.182.469 1.509 1.509 0 01-.494.059c-.048-.023-.048-.075-.031-.2v-.261zm.009.833a.415.415 0 01-.008-.062c0-.016 0-.026.012-.031a.856.856 0 01.689.171l.152.192a.277.277 0 01.042.148.85.85 0 01-.132.367l-.022.042a.538.538 0 01-.452.2l-.075-.026c-.092-.028-.172-.052-.2-.133a2.08 2.08 0 01-.023-.328c0-.163.013-.328.027-.49l-.01-.054zm-1.221-1.454a.05.05 0 00-.042-.021l-.287.008-.44-.007c-.016 0-.048-.009-.058 0l-.073.08c-.017.019-.008.028.006.049a.244.244 0 00.187.094c.079.012.105.021.118.075a1.923 1.923 0 01.056.452l.037.381-.04.789s0 .008-.007.013a4.616 4.616 0 01-.625-.655l-.348-.4-.333-.422-.279-.345c-.011-.011-.105-.082-.105-.082a.053.053 0 00-.031-.011l-.515-.024a.473.473 0 00-.062.019.055.055 0 00-.033.04.184.184 0 00-.005.041.11.11 0 00.021.067.166.166 0 00.134.05l.073.015a.222.222 0 01.127.174v1.353l-.016.517-.023.207c-.009.009-.032.013-.087.019l-.166.07c-.011 0-.027.029-.027.061v.006a.1.1 0 00.076.07h.493l.3.013a.124.124 0 00.125-.106.053.053 0 000-.036.163.163 0 00-.157-.079l-.05-.005a.311.311 0 01-.083-.17l-.027-.085c0-.015-.021-.225-.021-.225a2.631 2.631 0 01-.027-.326 1.025 1.025 0 01.012-.162v-.573a.318.318 0 01.018-.088l.34.343.291.311.275.324a11.957 11.957 0 00.816.9.17.17 0 00.144.038.116.116 0 00.078-.074v-.349a3.644 3.644 0 00.021-.68l-.006-.378v-.2l-.005-.263c0 .018.014-.175.014-.175l.035-.372c.01-.042.043-.057.1-.081l.123-.081a.037.037 0 00.018-.031c0-.016-.008-.025-.017-.038zm-10.002.046a.266.266 0 00-.211-.023l-.113.006-.511-.033h-.055a.176.176 0 00-.155.05.093.093 0 00-.017.086.116.116 0 00.074.072h.117c.1-.005.138 0 .16.057v.549l.009.835-.009.414-.008.187-.019.214c-.014.041-.038.045-.117.044a.2.2 0 00-.21.093.057.057 0 000 .056.247.247 0 00.236.071h.078l.375.014.285.017a.048.048 0 00.034-.012l.039-.031a.059.059 0 00.02-.03.2.2 0 00.005-.044c0-.091-.082-.115-.124-.128l-.057-.027a1.251 1.251 0 01-.134-.693v-.221l.031-.929.054-.345c.008-.036.02-.04.1-.043l.16-.045c.015 0 .02 0 .026-.014a.015.015 0 000-.009c0-.006-.005-.01-.01-.021zm-1.468-.002a.048.048 0 00-.018 0h-.8c-.071.022-.1.058-.1.1a.146.146 0 00.179.107h.052c.055.027.075.1.1.167l.027.083v.008c0 .1.028 1.025.028 1.025s-.031.3-.031.311 0 0-.008.009a11.194 11.194 0 00-.344-.367l-.263-.282a7.86 7.86 0 00-.65-.79l-.338-.384a.37.37 0 00-.072-.032.055.055 0 00-.032 0 1.656 1.656 0 01-.441.03h-.114a.362.362 0 00-.068.032.052.052 0 00-.026.049c.007.148.128.155.2.159.054 0 .09.006.106.029a.559.559 0 01.052.348l.017.311-.012.146a.616.616 0 00.014.3v.15l-.01.434a1.352 1.352 0 01-.058.576c-.011.025-.029.027-.088.026a.16.16 0 00-.168.073.054.054 0 00.006.057.169.169 0 00.138.077l.415.007.337.017a.485.485 0 00.074-.041.058.058 0 00.024-.036.122.122 0 00-.02-.1.174.174 0 00-.139-.047l-.062-.008c-.137-.086-.141-.228-.145-.392l-.008-.151-.024-.509.022-.47.009-.338.032.021c.487.509.99 1.077 1.493 1.687l.1.132a.444.444 0 00.226.221.13.13 0 00.125-.111l.012-.534.006-.081-.005-.226.005-.412a.627.627 0 010-.325.7.7 0 00.005-.353v-.1a.442.442 0 01.052-.323.052.052 0 00.014-.029c.006-.037.013-.04.077-.043l.139-.042a.088.088 0 00.033-.084.106.106 0 00-.075-.082zM42.361 26.651l.047.712.041.432.034.826.014.4v.116l.025.577.017.715-.016.555a5.992 5.992 0 01.063.76c0 .066 0 .132-.007.2l-.019.405c-.009.161-.019.324-.019.489 0 .1 0 .209.014.314a1 1 0 00-.028.249 2.8 2.8 0 00.028.344 3.521 3.521 0 01.04.575c0 .133 0 .267-.009.4l-.026.509c-.036.389-.012.791-.012 1.188v.682l-.051.661v1.434l-.006.5-.026.556-.037.46.015.607a.409.409 0 00.189.265.541.541 0 00.369.166l.235.069a1.7 1.7 0 00.2 0l.278-.062.3-.1.271-.237a1.83 1.83 0 00.157-.782V40.5a.807.807 0 01.732-.252 3.134 3.134 0 01.7.019 3.519 3.519 0 00.7.022 2.672 2.672 0 01.669 0l.421-.023.556-.017a2.151 2.151 0 00.82 0l.594.007.4-.006a5.22 5.22 0 011.083.013l.252.019c.178.092.192.277.207.491a.936.936 0 00.1.435.757.757 0 00.7.313 1.2 1.2 0 001.014-.439 1.56 1.56 0 00.258-1 32.163 32.163 0 01-.155-2.222l-.013-.269v-.632l.011-.414-.006-.409a3.161 3.161 0 00-.042-.794l-.031-.5-.025-.273a1.529 1.529 0 01.04-.466l-.008-.247-.016-.819.027-.767.008-.773a3.577 3.577 0 00.021-.729v-.167a4.284 4.284 0 00-.064-.852c0 .015.057-.44.057-.44l-.028-1.034-.012-.283.012-.16a1.013 1.013 0 00.014-.144c0-.032.04-.064.032-.1a.969.969 0 01.336-.406 1.439 1.439 0 00.331-.319c.007-.013.019-.045.019-.045a.578.578 0 00.054-.213.305.305 0 00-.018-.1l-.006-.012a1.757 1.757 0 00-.459-.438l-.391-.253a4.952 4.952 0 00-1.031-.552c-.011 0-.13-.019-.13-.019a.165.165 0 00-.049.02l-.117.049a.234.234 0 00-.2.119c.008-.012-.07.071-.07.071a1.589 1.589 0 01-.427.362l-.517.05-.293.012h-.421a5.044 5.044 0 00-1.064.1c.016 0-.128-.016-.128-.016a1.89 1.89 0 00-.634 0 2.13 2.13 0 01-.539.016 3.565 3.565 0 01-1.12 0 1.306 1.306 0 00-.527-.007l-.393.015a2.991 2.991 0 01-.595 0l-.43-.011-.628-.048-.18-.062a2.022 2.022 0 01-.614-.255c-.011-.006-.827-.366-.827-.366a.054.054 0 00-.039 0 .189.189 0 00-.114.163l-.008.032a4.277 4.277 0 01.121 1.025zm1.857 1.636l.028-.28.029-.235-.011-.147a.546.546 0 01.54-.808l.246-.037.2-.03.116.015a2.6 2.6 0 00.7.006l.407.013h.176l.366.024a3.022 3.022 0 01.765.016 3.276 3.276 0 00.693.022h.139l.255-.008a1.293 1.293 0 01.423-.074l.182-.015c-.013 0 .307.04.307.04l.411-.02.453-.036.313.047a.629.629 0 00.359.028.266.266 0 01.142.112c0 .034.059.675.059.675l.036.355.028.171c0-.009-.039.306-.039.306a3 3 0 00-.005.43 1.19 1.19 0 00.025.252 11.384 11.384 0 01.042 1.367l.011.271-.007.534a3.231 3.231 0 01-.049.408c0 .191.013.351 0 .52l-.051.095a.444.444 0 01-.2.254l-.391.028h-.465l-.156.008-.506.032-.466.024-.735-.048-.226.005a1.451 1.451 0 00-.441.009c.011 0-.572.054-.572.054a1.072 1.072 0 00-.366-.017l-.167.016a4.126 4.126 0 00-1 .008 1.043 1.043 0 01-.37-.03l-.592.006c-.237-.025-.451-.073-.533-.257a.211.211 0 000-.028c0-.133-.011-.627-.011-.627l-.033-.953v-.217a8.035 8.035 0 00-.081-1.209 5.91 5.91 0 00.051-.686 2.381 2.381 0 00-.029-.389zm7.409 8.019l.028.347c.017.187.034.376.034.567a2.265 2.265 0 01-.037.428 4.23 4.23 0 00-.058.674v.2c0 .084.006.145.006.23a1.216 1.216 0 01-.055.4l-.064.1c-.035.07-.065.129-.132.149l-.345-.009-.239-.017-.217.03a2.842 2.842 0 01-.715.05l-.6.008-.234-.013h-.421l-.463-.009a4.1 4.1 0 01-1.2-.047l-.321.019a.794.794 0 01-.4-.008c-.022 0-.88.06-.882.06l-.408-.035-.225-.013a.323.323 0 00-.031-.014.587.587 0 01-.27-.166.054.054 0 000-.015c0-.133-.054-1-.054-1l-.015-.812-.017-.324.057-.647.013-.212-.024-.308a3.375 3.375 0 01-.024-.349 1.312 1.312 0 01.015-.208c0-.014.027-.266.027-.266l.03-.2-.049-.629-.039-.46a.513.513 0 01.3-.306l.341-.046a.65.65 0 00.295 0l.2-.016h.068l.219-.045h.354l.1-.007.24.02a1.7 1.7 0 00.511 0l.159-.009h.437l.4.021.284.016.335.04a3.935 3.935 0 011.053-.013.17.17 0 00.038-.005 1.3 1.3 0 01.585-.067c.013 0 .077-.008.077-.008l.246.007.164.012.556.054c.147-.028.2.069.289.221l.041.094c-.01-.03.018 1.427.018 1.427a6.07 6.07 0 00.019 1.109zm1.838-8.729v-.019a.063.063 0 010 .019zM25.649 66.229l.054.822.019.191a3.6 3.6 0 01.028.383 1.27 1.27 0 01-.015.2l-.019.511c0 .019.044.565.044.565l.018.284.015.4.01.358v.445l.01.9.013.265-.05.527-.043.383a2.106 2.106 0 00-.035.606.664.664 0 00.315.535c.021.008.277.033.277.033a1.235 1.235 0 00.815-.129.8.8 0 00.456-.411l.08-.117h.125a.44.44 0 01.214.021c.025 0 .953-.073.953-.073l.742.029.258-.021.466-.027.325.017a4.076 4.076 0 01.76.077c.182.033.359.065.418.233a.97.97 0 00.9.345 1.377 1.377 0 00.726-.509 1.512 1.512 0 00.088-.557 5.36 5.36 0 00-.013-.336l-.012-.28a5.422 5.422 0 01-.081-.9v-.116c-.009-.238-.02-.507-.02-.784a7.325 7.325 0 01.033-.732v-.2a6.023 6.023 0 01.055-.982l.008-.253v-.5l.184-.136c.125-.075.268-.16.286-.341a.767.767 0 00-.269-.458l-.288-.161-.269-.152-.342-.21-.179-.06a.334.334 0 00-.326-.031 1.789 1.789 0 01-.7.606l-.179.01-.186.008a15.048 15.048 0 00-1.679.009l-.154-.008-.3.014-.215.012-.276.009a4.661 4.661 0 01-.741-.009l-.3-.042h-.285l-.695-.246-.22-.132a.719.719 0 00-.334-.163c-.007 0-.166-.042-.166-.042a.269.269 0 00-.334.027.141.141 0 00-.046.1.3.3 0 00.045.135zm5.036.94l.266-.017.241-.018.175.019.353.032c.042.036.126.1.138.169l.014.243.05.489.008.817a.253.253 0 01-.118.24l-.529.039-.3.013-.46.006-.069.006-.748-.014-.537.039a2.576 2.576 0 00-.569.047 4.7 4.7 0 01-1.14-.072c-.005 0-.123-.042-.123-.042a.222.222 0 01-.038-.148c0-.04 0-.082.007-.124l-.011-.265a7.272 7.272 0 01-.038-.684 3.244 3.244 0 01.057-.631.755.755 0 01.625-.131h.448a3.506 3.506 0 00.673-.024 3.659 3.659 0 00.685.026h.1l.392-.006.45-.01zm-3.187 5.007a.535.535 0 01-.14-.337l-.035-.155-.034-.383a2.654 2.654 0 01-.035-.37 1.1 1.1 0 01.016-.191l.024-.4.02-.179c.013-.03.057-.049.117-.063a2.671 2.671 0 011.182-.082l1.133-.086.2-.02a1.6 1.6 0 00.638.013l.207-.021.393.038.406.038.091.031c.07.016.113.029.13.082 0 .015.028.4.028.4l.032.5v.287l-.01.571a.582.582 0 01-.206.4 1.085 1.085 0 01-.452.015l-.365-.009a3.372 3.372 0 01-.615.03l-.447.008-.456-.008a5.5 5.5 0 00-.9.021.7.7 0 01-.308 0l-.15-.018zm-3.631 5.184l.565-.423.019-.02a.367.367 0 00.126-.236.225.225 0 000-.031.218.218 0 00-.167-.137c-.017 0-.458.161-.458.161l-.561.189-.66.242-.744.269-.02-.392-.02-.33.014-.338.017-.694-.018-.854-.009-.567a12.66 12.66 0 01-.01-.514c0-.339.012-.673.023-1l.02-.7c.035-.11.1-.273.239-.291h.285l.49-.009h.605l.184-.005.254.007.394.014a1.375 1.375 0 00.444 0l.089-.048v-.115l-.006-.078a.644.644 0 00-.24-.392l-.065-.042c-.053-.028-.083-.047-.082-.091a.043.043 0 00-.013-.031 4.351 4.351 0 00-.771-.547l-.136-.121c-.07-.084-.15-.178-.287-.151a1.65 1.65 0 00-.444.43 1.656 1.656 0 01-.42.414l-.152.018-.253.014c-.176-.091-.186-.287-.2-.494l-.007-.124.009-.169a.372.372 0 00-.009-.241c0 .023.015-.308.015-.308l.017-.358a2.789 2.789 0 01.061-.822l.008-.047.076-.265.085-.327a1.327 1.327 0 01.3-.5l.136-.171a.319.319 0 00-.091-.376l-.2-.1a1.227 1.227 0 01-.345-.215c-.017-.01-.449-.183-.449-.183l-.316-.135a2.725 2.725 0 00-.678-.139.246.246 0 00-.046.014c-.1.037-.214.084-.24.211a.809.809 0 00-.018.177 1.589 1.589 0 00.068.405 1.557 1.557 0 01.067.393v.042l.013.187.008.229a1.23 1.23 0 01.013.18 2.722 2.722 0 01-.018.274l-.017.346.034.33.046.4a.232.232 0 00-.021.1.717.717 0 00.034.181l.03.184-.016.223-.02.361a.356.356 0 00-.029.149 1.1 1.1 0 00.037.241.262.262 0 00-.036.161v.084c0 .079-.01.126-.075.147h-.154l-.487-.021c-.012 0-.09.013-.09.013a.4.4 0 01-.22 0 1.082 1.082 0 01-.371-.018.882.882 0 00-.415 0h-.5a2.044 2.044 0 00-.621.027.163.163 0 00-.035.189c.006.016.024.039.041.04.054 0 .082.041.123.1l.094.109c-.006-.005.074.116.074.116a.387.387 0 00.242.228 4.165 4.165 0 01.747-.047l.112.008h.416l.238-.007h.227l.606.013c.032.016.04.053.05.116l.032.1-.018.236v.123l-.02.49-.019.107-.014.283-.018.172a.958.958 0 000 .365v.124l.016.213.017.474a8.009 8.009 0 01-.008.945l-.075.536-.009.206a2.855 2.855 0 00.033.8l.014.5.016.417c.001.011-.027.031-.029.034a1.856 1.856 0 00-.19.048l-.749.186-.612.2-.242.077-.376.087a2.315 2.315 0 01-.576.105l-.157.043c-.116.021-.26.048-.281.215a5.242 5.242 0 01.34.638c0 .006.508.847.508.847l.086.153a.868.868 0 00.271.352l.047.035c.082.062.2.148.323.07a1.993 1.993 0 01.4-.4l.306-.279.4-.316.5-.413.827-.494.4-.251.107-.059 1.064-.616zm-5.614 3.26c0-.011-.016-.014-.016-.021.004.008.012.013.015.022z"/><path class="b" d="M35.722 74.133l-.257-.2-.15-.126a3.664 3.664 0 00-.785-.555h-.1c-.283-.109-.52.136-.71.333l-.045.046-.171.281a.846.846 0 01-.366.419.594.594 0 01-.407.123l-.256.032-.426-.007h-.936l-.532.011-.5.021a4.733 4.733 0 01-.978-.01l-.392-.011a5.205 5.205 0 00-.963.023 2.616 2.616 0 00-.59.04c.011 0-.13-.021-.13-.021a.932.932 0 00-.369-.014l-.2.008-.138.012-.16-.024-.259-.014-.324.012-.205.014-.366-.007-.433-.016-.191-.009-.432-.05h-.63l-.148-.011c-.009 0-.1-.029-.1-.029-.058-.028-.155-.076-.218.041a.048.048 0 00.005.047l.334.433c.009.011.325.31.325.31.019.008.315.009.315.009h.293a4.2 4.2 0 011.059-.037l.4.025.52.042.017.019-.2.412c0-.006-.052.089-.052.089a14.322 14.322 0 01-1.232 1.908c.089-.116.08-.024-1.225 1.554l-.746.85c-.007.013-.082.1-.082.1a.2.2 0 00-.1.192c.028.045.077.112.154.087l.25-.1a1.107 1.107 0 00.413-.219 4.639 4.639 0 001.2-.747l.267-.226a2.041 2.041 0 00.409-.387 3.483 3.483 0 00.537-.463l.216-.208.5-.516.324-.331c0 .009.309-.017.309-.017l.151.005h.336a.56.56 0 00.06 0c.083 0 .116.008.131.037l-.534.906a1.572 1.572 0 01-.3.461l-.268.343a6.619 6.619 0 01-.581.852l-.628.608-.772.784-.258.259-.152.112a.234.234 0 00-.087.227.721.721 0 00.092.078c.03 0 .5-.19.5-.19l.248-.086.255-.131.317-.161.474-.325.721-.571.586-.467a4.186 4.186 0 00.677-.59l.418-.4.335-.4.37-.449.308-.439.308-.435c0 .009.4-.018.4-.018l.652-.014a.053.053 0 00.011.02c-.007 0-.14.238-.14.238l-.265.523-.423.663-.375.611a3.16 3.16 0 01-.331.541l-.321.427-.314.425a4.453 4.453 0 01-.44.586l-1.532 1.532-.088.084a.284.284 0 00-.136.206.231.231 0 00.235.167 2.943 2.943 0 00.758-.293l.962-.591a5.712 5.712 0 001.065-.834l.58-.506.4-.452c.169-.212.263-.331.465-.59a3.465 3.465 0 00.385-.475 1.784 1.784 0 01.33-.428l.282-.384.487-.69.151-.2s.437-.552.471-.58.1-.008.1-.008a.219.219 0 01.173.072c.154.1.145.276.134.45v.063l-.036.488a4.486 4.486 0 00-.1.721l-.234 1.219-.1.33-.033.117-.056.29c0-.015-.071.206-.071.206a1.3 1.3 0 01-.191.434 1.047 1.047 0 01-.912.347c-.03 0-.234.024-.234.024a.925.925 0 01-.358.005l-.378-.085-.251-.052a.163.163 0 00-.163.082.121.121 0 00.014.157c.011.008.19.1.19.1a1.548 1.548 0 01.5.32c.242.16.255.411.27.677l.03.306c.089.213.311.215.489.217l.148-.027.627-.1a2.567 2.567 0 00.917-.483 1.844 1.844 0 00.611-.692l.1-.166a4.355 4.355 0 00.415-1.558l.079-.473c.1-.587.2-1.193.242-1.809l.023-.182c.039-.341.08-.695.422-.8a.825.825 0 00.291-.29.553.553 0 00-.165-.572l-.043-.056c-.011-.009-.8-.528-.8-.528l-.131-.1a.527.527 0 00-.431-.18.559.559 0 00-.06.037l-.116.047a.209.209 0 00-.032.01l-.258.252a1.773 1.773 0 01-.612.471l-.335.057h-.649l-.262.007a4.322 4.322 0 01-.834.041h-1.067l-.4.011-.6.012h-.264l-.277-.033-.47-.035-.18.01c-.146.016-.284.031-.374-.085-.01-.017-.016-.049.052-.116l.118-.156.143-.17a3.612 3.612 0 01.59-.749l.1-.105a.681.681 0 01.389-.1l.066-.005h.528l.294-.007.572-.009 1.116.01.73-.01h1.025l.42.006h.279l.783.008h.629l.143-.02a.648.648 0 01.363.005 1.039 1.039 0 00.463-.1.274.274 0 00.14-.237 1.354 1.354 0 00-.56-.645zm22.17-16.707a.544.544 0 00-.253-.12h-.012l-.22-.122-.26-.14c.011.006-.613-.409-.613-.409-.385-.251-.783-.51-1.152-.806l-.548-.38-.215-.151a2.065 2.065 0 01-.424-.345l-.171-.111-.153-.1-.244-.234-.3-.277-.387-.318-.5-.43a14.915 14.915 0 01-1.5-1.468 3.288 3.288 0 00-.5-.57l-.316-.322a4.227 4.227 0 01-.552-.557l-.017-.028a1.217 1.217 0 01.341 0l.475.012.484.016h.535l1.084-.026 1-.028.218.022a.644.644 0 00.318 0l1.147.024h.04l.331-.008h.671c.353 0 .579-.111.674-.344.075-.306-.15-.479-.349-.632l-.211-.182-.209-.158-.223-.174c-.007-.006-.255-.144-.255-.144l-.311-.191-.183-.117a.623.623 0 00-.283-.149.482.482 0 00-.538.193 5 5 0 01-.57.936.407.407 0 01-.211.193 2.369 2.369 0 00-.537.033 5.759 5.759 0 01-1.443.026l-.317-.018a4.156 4.156 0 00-.886-.009 2.146 2.146 0 01-.532-.015l-.386-.027h-.362l-.3.009-.014-.012c0-.035-.011-.262-.011-.262l-.011-.46v-1.025l.027-.332.043-.586.035-.173a3.525 3.525 0 01.1-.754l.155-.172a.542.542 0 00.229-.431.35.35 0 00-.16-.236l-.048-.041c-.018-.011-.34-.133-.34-.133l-.6-.2-.208-.049a.845.845 0 00-.406-.041.574.574 0 00-.091-.02l-.254-.032a.039.039 0 00-.036.013.242.242 0 01-.147.031c-.1 0-.241.007-.267.173a.513.513 0 00.044.1.317.317 0 01.061.182 3.042 3.042 0 01.118.716l.056.472v1.506l-.009.491.039.8s-.011.432-.008.475l-.014.014-.565-.016-.513-.021a2.8 2.8 0 01-.572.041h-.303c-.021 0-.425.021-.425.021h-.149l-.466.04c.022 0-.173.017-.173.017.023-.005-.044-.007-.044-.007l-.221.007-.313-.017-.46-.036-.307.02-.256.019-.289-.016-.256-.013-.068-.01-.1-.012-.381-.008-.392.019-.369.043-.145-.007h-.315c.015 0-.29-.024-.29-.024l-.411-.045-.136-.033-.066-.011-.058-.007a.126.126 0 00-.143.043.246.246 0 00.126.255l.069.06.21.264.03.045.147.242a.2.2 0 00.2.068h.036l.208-.036.5-.065h.326l.713.027.556-.033.491-.025.16.018.76-.03a2 2 0 01.769-.07h.208l.343.021a4.1 4.1 0 01.74.025l.017.015a.145.145 0 010 .026.4.4 0 01-.07.183l-.019.032a4.167 4.167 0 01-.373.686l-.27.458a6.622 6.622 0 01-.554.785l-.532.744-1.085 1.513-1.449 1.853-.467.626-1.254 1.5-.223.274a.45.45 0 00-.019.08.189.189 0 00.194.128h.036a.3.3 0 00.07-.025l.586-.3a8.449 8.449 0 00.973-.734l.341-.269.3-.235.716-.669c.422-.468.864-.9 1.28-1.3l.186-.218a1.971 1.971 0 01.374-.384c.008-.008.229-.319.229-.319a1.854 1.854 0 01.3-.393c.008-.009.245-.364.245-.364l.452-.625.3-.429c.318-.452.646-.92 1.011-1.359-.006.006.19-.242.19-.242l.057-.172c.041-.04.058-.058.112-.051a.106.106 0 01.032.052l-.008.683a7.688 7.688 0 00-.016.434 2.892 2.892 0 00.022.37v.618l.007.692-.011.421-.027.852a2.6 2.6 0 00.008.691l.025.49v.334c.01.281.05.547-.174.711a.347.347 0 01-.232.022h-.146a3.4 3.4 0 00-.658.011l-1.139-.029h-.136l-.246-.023h-.418l-.116-.007c-.01 0-.172-.019-.172-.019-.106-.024-.238-.054-.318.068a.052.052 0 00-.008.032.4.4 0 00.163.251l.051.048.369.406.058.069a.264.264 0 00.263.015.278.278 0 01.179-.018 2.662 2.662 0 011.033-.017l.312-.009.463-.021a4.629 4.629 0 00.758.056c.017 0 .044.033.068.081a2.777 2.777 0 01.015.568v.073l-.011.22a1.326 1.326 0 01.006.133 2.812 2.812 0 01-.043.43v.256l-.07.637-.043.721-.042.4.087.462c.006.019.06.126.06.126a.683.683 0 00.229.31 1.8 1.8 0 00.664.024l.2-.018c.016 0 .069-.026.069-.026a1.015 1.015 0 00.465-.217c.008-.013.138-.175.138-.175a.982.982 0 00.13-.476.876.876 0 00.01-.151.238.238 0 01-.006.035s0-.026.006-.037a.424.424 0 00-.024-.145v-.169a3.644 3.644 0 01-.038-.436c0-.146-.008-.3-.025-.479l-.014-.969a2.024 2.024 0 00.013-.233 4.473 4.473 0 00-.034-.48l-.014-.366a1.047 1.047 0 00.053-.108.267.267 0 01.18-.02l.269-.02.312-.019h1.43l.667.1c.016 0 .175-.016.175-.016a.614.614 0 00.531-.225.642.642 0 00-.233-.655l-.021-.024a1.378 1.378 0 00-.384-.354l-.174-.13-.033-.04-.06-.071-.194-.138a.73.73 0 00-.448-.214.755.755 0 00-.323.393l-.151.257-.083.1c-.068.09-.132.175-.229.187a1.423 1.423 0 00-.521.035 2 2 0 01-.682-.055.427.427 0 01-.122-.269v-.022c.016-.254.005-.516.005-.776a5.4 5.4 0 00-.037-.663c.016-.236.022-.472.022-.707 0-.311-.01-.62-.021-.923l-.02-.825.009-.27v-.541c.014-.18.018-.364.018-.547s-.005-.4-.01-.59l-.01-.7c0-.107.025-.167.076-.194a.112.112 0 01.094.015l1.009 1.6 1.113 1.679.3.436a9.233 9.233 0 00.786 1.064l.8.927a12.561 12.561 0 00.92 1.051l.327.373a3.97 3.97 0 00.506.517l.363.348c.179.12.309-.028.4-.136l.124-.122a4.04 4.04 0 011.839-.622h.133l.209-.022a.316.316 0 00.18-.218.05.05 0 00-.026-.064zm-.457 15.412a4.814 4.814 0 01-.91-.353l-.188-.087-.53-.282-.444-.246a23.335 23.335 0 01-1.555-.981l-.491-.372a3.566 3.566 0 01-.582-.461.7.7 0 01-.051-.049l-.042-.039.007-.008a2.143 2.143 0 00.249.014h.958l.265-.006a5.558 5.558 0 001.015-.031h.272l.506-.031c-.015 0 .1.018.1.018a1.527 1.527 0 00.765-.005c.152-.059.153-.244.154-.332a.748.748 0 00-.41-.4.951.951 0 01-.331-.251l-.139-.113-.121-.1-.037-.026a2.073 2.073 0 01-.471-.334 1.19 1.19 0 00-.153-.031l-.257-.015a1.508 1.508 0 00-.53.506l-.118.156a.426.426 0 01-.191.2l-.54.05-.326.013-.424.021-.642-.007-.441.007-.862.015h-.847l-.164-.022c-.111.016-.158.01-.178-.054a1 1 0 00.14-.27l.04-.1.209-.361a4.054 4.054 0 00.328-.622c.023-.059.063-.059.145-.055l.142-.011.427-.065.233-.014.269-.022.765-.11.807-.116 1.3-.207a.134.134 0 00.115-.126 1.361 1.361 0 00-.443-.663l-.052-.053-.323-.279a1.755 1.755 0 00-.715-.478c-.025 0-.29.1-.29.1l-.475.147-.316.095a8.861 8.861 0 00-1.263.4c-.605.209-1.169.385-1.723.535l-1.026.3a9.628 9.628 0 01-1.134.325l-.262.062-.355.1-.085.027c-.07.016-.157.036-.179.14.108.216.328.217.5.217h.04l.742-.056.5-.042.474-.036.137-.014c.083-.014.155-.028.209.016.016.015.012.04 0 .09l-.014.058c0-.013-.148.345-.148.345l-.249.537-.066.136c-.026.083-.045.131-.121.138l-.425.012-.6.026-.383-.019a2.232 2.232 0 01-.54-.049l-.6-.022a.765.765 0 00-.072.027.132.132 0 00-.04.149c.01.018.286.356.286.356l.316.382a.737.737 0 00.067.033c.03 0 .392-.068.392-.068l.216-.032.37-.043h.119a2.083 2.083 0 01.521.06l-.026.064-.123.261-.448.725-.872 1.367-.063.083a9.788 9.788 0 01-.9 1.075l-.042.033c0-.015-.138-.281-.138-.281a3.036 3.036 0 00-.808-.8l-.112-.086-.317-.184a1.812 1.812 0 01-.762-.7 2.177 2.177 0 01-.01-.2 1.592 1.592 0 01.035-.346l-.06-.239a.462.462 0 01.05-.273c.034-.087.1-.086.211-.08l.174-.011.3-.01.275-.014.646-.039.371-.015a.48.48 0 00.453-.108c.085-.127.056-.288-.078-.46 0-.005-.453-.351-.453-.351a3.376 3.376 0 01-.568-.467l-.079-.072a.365.365 0 00-.244-.138c-.1-.02-.153.062-.189.12l-.062.08a.1.1 0 00-.017.029.409.409 0 01-.105.2l-.113.187c.011-.017-.092.11-.092.11-.061.086-.119.168-.213.185h-.088c-.073.006-.1 0-.121-.036v-2.106l-.01-.258.024-.133.034-.267.035-.118a.346.346 0 01.149-.257c.017-.018.067-.1.067-.1.065-.1.155-.234.04-.365a1.311 1.311 0 00-.661-.337c.01 0-.424-.149-.424-.149l-.489-.081a.651.651 0 00-.357.014l-.084.017-.158.063c-.021.008-.016.021-.008.042a.67.67 0 01.057.3c0 .01.049.284.049.284l.085.51.079.794.079.8-.012.641-.012.489a.377.377 0 01-.166.285.8.8 0 01-.279.007h-.032l-.31-.013-1.136-.007-.63-.025-.274-.02-.031.012h-.054a.124.124 0 00-.1.024.09.09 0 00-.018.077c.013.024.339.4.339.4l.288.336a.4.4 0 00.392.036.453.453 0 01.276-.02h1.443c.035.01.062.078.062.078l.026.122a.313.313 0 01.038.155.941.941 0 01-.057.27l-.051.2-.04.24a15.1 15.1 0 01-.465 1.5l-.172.446-.311.873-.175.529-.207.623a3.763 3.763 0 01-.236.68l-.236.6-.338.9-.149.447-.192.555c0 .012-.069.16-.069.16a.4.4 0 00-.076.2.19.19 0 00.066.14.214.214 0 00.034.016.171.171 0 00.176 0 9.507 9.507 0 00.787-1.13l.539-.934.351-.634.2-.359.169-.294.173-.348.155-.451.185-.332.132-.249c-.006 0-.01.444-.01.444v.263l-.008.245.026.718c0 .059.006.119.006.18 0 .2-.019.41-.036.611l-.035.519-.024.659-.024.56.014.315v.613l-.025.341a6.978 6.978 0 01.031.889l-.036.289-.022.238-.015.178a.445.445 0 01-.039.221 4.32 4.32 0 00-.013.251v.286l.005.317v.267a.319.319 0 00-.079.217.478.478 0 00.033.173.335.335 0 00.26.252l.188.022a.9.9 0 00.367 0l.185-.046a1.431 1.431 0 00.621-.334 1.364 1.364 0 00.21-.742c0-.113-.012-.227-.018-.34l-.009-.211-.039-.441-.039-.527c.026-.285.034-.584.034-.876 0-.321-.01-.634-.019-.912l-.045-1.1-.024-.856v-2.151l-.011-.38-.026-.749.037-.728.007-.389v-.335h.021a1.016 1.016 0 01.295.411l.088.148a3.3 3.3 0 01.142.676l.039.452a1.292 1.292 0 00.256.9.959.959 0 00.655.189.481.481 0 00.375-.147l.057-.044a.984.984 0 00.335-.473l.024-.127.042-.15.451-.375.131-.121.94-.95.6-.592v.008c-.009-.014.027.238.027.238l.028.235.021 1.053.022 1.063v.357a.327.327 0 00.157.261l.063.057c.062.146.218.223.47.226a1.211 1.211 0 00.784-.581l.074-.043.1-.093a1.374 1.374 0 01.582-.025l.188-.02a.379.379 0 01.222 0h.081l.4.021a1.96 1.96 0 00.583-.006 2.1 2.1 0 01.551.052.267.267 0 01.131.157l.134.174c.011 0 .452.125.452.125l.129.023a.675.675 0 00.46-.015.593.593 0 00.383-.505l-.03-.462-.027-.273a.955.955 0 00-.005-.524l.019-.406.012-.381c0-.002.077-.118.077-.118l.117-.2a.4.4 0 00.017-.118.476.476 0 00-.056-.221 2.1 2.1 0 00-.512-.477l-.062-.046-.243-.129a.5.5 0 01-.258-.161.165.165 0 00-.084-.036c-.029 0-.09.062-.09.062-.029.035-.042.028-.06.041s-.03.007-.04.018a1.078 1.078 0 01-.5.252l-.274.089-.359.013-1.435.018-.487-.007-.364-.015-.153-.051-.137-.055-.114-.1c-.064-.04-.1-.067-.1-.114a.069.069 0 010-.011.878.878 0 00-.123-.132l-.057-.048.209-.269.291-.4.167-.221.219-.279.117-.148c.049-.076.09-.141.17-.165l.318.027a8.069 8.069 0 01.986-.007l.283-.01h.572l.1-.012a.37.37 0 01.224.009l.956 1.129.763.886.371.373a13.01 13.01 0 001.671 1.506c.23.085.357-.07.47-.208l.163-.167.12-.052.256-.132a2.85 2.85 0 00.839-.334.111.111 0 00.058-.09.083.083 0 00-.042-.072zm-5.363.713c.042.329.086.667-.215.838a1.33 1.33 0 01-.39.007l-.338-.014-.16.009-.331-.014-.327.045a.442.442 0 00-.245 0l-.166.017-.182-.025-.349-.057-.093-.005a.28.28 0 01-.2-.049 1.388 1.388 0 01-.1-.428l-.04-.253-.017-.652v-.041c0-.091.011-.148.07-.164l.35-.1a2.037 2.037 0 00.661-.057l.358.021.281.025a.492.492 0 01.242-.008l.131.011a2.47 2.47 0 01.822.045.353.353 0 01.2.181.319.319 0 01.013.216v.218l.025.235z"/><path class="b" d="M55.749 76.346l-.653-.348c-.228-.1-.4.084-.545.234l-.093.095-.167.121a.573.573 0 01-.446.188l-1 .023-.385.02-.6.02a4.376 4.376 0 01-.76.008h-.107l-.537-.008-.334-.013H49.5l-.223.011-.258.017a61.6 61.6 0 00-.237-.006l-.476-.025-.653-.005-.142-.009-.433-.011a.685.685 0 01-.424-.156l-.222-.126-.2-.116-.288-.2a.376.376 0 00-.366-.145c-.113.054-.135.114-.135.156q.034.4.034.892 0 .2-.006.4l.025.9.03.967a3.772 3.772 0 01-.04.637l-.034.363a2.164 2.164 0 01.011.224c0 .143-.011.287-.022.428l-.011.15-.014.356-.031.445-.025.532a4.308 4.308 0 01-.072.833v.077a.243.243 0 00.089.208.9.9 0 00.724.111 1.753 1.753 0 00.645-.346c.232-.074.284-.326.326-.528a2.232 2.232 0 00.027-.349 4.682 4.682 0 00-.048-.769l-.07-.682v-1.875l-.006-.488v-.417a3.015 3.015 0 01.072-.575.516.516 0 01.168-.173 2.41 2.41 0 01.325-.057 2.646 2.646 0 00.484.022l.086-.009h.559a2.883 2.883 0 00.834-.019h.269l.6.024h.329l.185-.005a.529.529 0 00.278-.034h.471l.641.03.194.01.2-.01.388-.019.3-.026a.807.807 0 01.418.006.675.675 0 01.551.322c0 .017.031.192.031.192l.018.293.03.4.039.936-.039.979v1.015l-.034.312c-.008.053-.06.1-.115.143l-.077.072c-.081.08-.175.056-.289.033l-.628-.086h-.121a.4.4 0 00-.25.035.13.13 0 00-.078.066.288.288 0 00-.017.073c.024.091.054.116.112.135l.041.027a2.741 2.741 0 01.909 1.087.5.5 0 00.475.24c.012 0 .207-.079.207-.079l.169-.078a2.448 2.448 0 001.084-.765c.007-.018.057-.328.057-.328v-.569c0-.623-.019-1.244-.055-1.854l.026-1.206-.006-.37.005-.512a1.727 1.727 0 01.3-.267l.2-.161a.579.579 0 00.072-.273.437.437 0 00-.026-.152 1.834 1.834 0 00-.618-.619z"/><path class="b" d="M53.043 81.34v.009l.011-.593v-.564a.625.625 0 00.058-.344v-.069a.724.724 0 01.233-.309l.183-.2c.109-.344-.156-.512-.389-.66l-.217-.152c-.006 0-.319-.146-.319-.146a1.46 1.46 0 01-.379-.188c-.169-.073-.264.033-.34.118a.355.355 0 01-.163.127c-.015.007-.146.107-.146.107-.128.119-.239.223-.413.15a3.107 3.107 0 00-.737.046l-.356-.007-.2-.042a.508.508 0 01-.406-.032c-.02-.008-.376-.05-.376-.05a1.862 1.862 0 01-.412-.243.59.59 0 00-.349-.144l-.145-.031a.578.578 0 00-.119.065c-.012.008-.013.015-.012.029l.015.231.013.153.01.624.007.364-.006.541.009.409.016.219-.012.5a3.015 3.015 0 00.026.8.327.327 0 00.273.182l.088.022c.018 0 .178-.015.178-.015a.793.793 0 00.606-.233.73.73 0 00.23-.369.717.717 0 01.174-.306 1.57 1.57 0 01.672 0l.063.008.252-.005.192-.015.242.037c.188.023.377-.069.525.034 0 .008.034.175.034.175.064.141.159.382.328.465.012 0 .345.06.345.06a1.583 1.583 0 00.539-.261.62.62 0 00.174-.497zm-3.416-.705a.374.374 0 01-.2-.051.777.777 0 00-.024-.089l-.061-.34a2.021 2.021 0 01.022-.445c0-.065 0-.13-.009-.193 0 .008.018-.058.03-.076.025.007.06-.032.06-.032.015 0 .021-.015.034-.023a.712.712 0 01.377-.009l.251-.011.193-.007 1.113-.018a9.73 9.73 0 01.144.044.235.235 0 01.161.067 4.05 4.05 0 01.076.683 2.375 2.375 0 01-.022.324l-.055.062c-.066.079-.123.147-.219.137-.009 0-.312.036-.313.036l-.472-.019-.107-.014h-.275a.643.643 0 01-.346.009l-.16.008a.638.638 0 01-.072-.014l-.091-.026zM35.951 26.67c-.108-.178-.171-.372-.272-.559-.225-.3-.474-.7-.861-.784a2.788 2.788 0 00-.761-.279 8.482 8.482 0 00-1.343-.179c-.155.07-.38.008-.434.2a.23.23 0 00.062.186c.272.248.644.295.939.5a4.112 4.112 0 01.606.614 4.378 4.378 0 01.38.7 4.943 4.943 0 00.2.567.808.808 0 00.605.357.894.894 0 00.831-.435l.086-.318a1.711 1.711 0 00-.038-.57zm-9.144 3.035c.124-.047.21-.163.334-.2a2.113 2.113 0 00.737-.877 1.189 1.189 0 00.194-.458.777.777 0 00-.085-.691.708.708 0 00-.613-.419c-.124.008-.225.093-.365.054a1.574 1.574 0 01-.784.147 1.9 1.9 0 01-1.3-.435c-.031-.248.178-.466.085-.73-.132-.357-.52-.559-.815-.753-.233-.015-.4-.178-.613-.249-.218-.054-.427.055-.644.015a.72.72 0 00-.481.357.214.214 0 000 .225c.155.171.334.349.489.528a1.5 1.5 0 01.28.621 5.243 5.243 0 01-.086 2.088.867.867 0 01-.078.311c-.093.124-.24.1-.381.124a7.805 7.805 0 01-1.133.031 2.543 2.543 0 01-.481-.046 5.382 5.382 0 01-.621-.07 3 3 0 01-.528-.155c-.186-.031-.326-.194-.52-.148-.039.008-.094.039-.07.085a3.213 3.213 0 00.326.536 2.859 2.859 0 00.823.636 3.979 3.979 0 001.351.381.858.858 0 00.419 0c.186.031.365.038.559.054a.1.1 0 01.077.078c-.031.4-.179.745-.225 1.141a11.139 11.139 0 01-.458 1.56c-.047.28-.179.528-.233.8l-.365.831a3.514 3.514 0 01-.241.613 4.879 4.879 0 01-.38.9c-.132.357-.373.675-.536 1.009a8.3 8.3 0 00-.512.878 2.8 2.8 0 00-.381.815 1.367 1.367 0 00.233 1.079.914.914 0 00.614.272l.192-.074a1.934 1.934 0 00.613-.613 10.994 10.994 0 00.737-1.319c.14-.341.233-.7.357-1.04a7.656 7.656 0 01.419-1.18c.086-.295.179-.6.264-.892.233-.885.388-1.77.668-2.624.163-.769.373-1.506.481-2.313.031-.085.116-.085.186-.1a6.952 6.952 0 001.513-.435c.334-.115.662-.224.978-.348zm-1.591-.985a1.636 1.636 0 01-.676.178c-.109-.047-.07-.187-.093-.264a4.015 4.015 0 01.241-1.032c.07-.07.17 0 .256.016a2.451 2.451 0 00.474.116 1.081 1.081 0 01.341.194c.062.07.14.155.086.248-.086.287-.396.419-.629.543zm5.764-1.623a2.686 2.686 0 01.978 1.063 4.89 4.89 0 00.411.893 1.231 1.231 0 00.869.271 1 1 0 00.489-.241 1.484 1.484 0 00-.031-1.4 1.39 1.39 0 00-.481-.559 4.129 4.129 0 00-1.8-.737l-.575-.055c-.147.024-.287 0-.4.085-.054.062-.015.147 0 .21.117.23.365.299.54.47zm-4.127 4.137a.472.472 0 00-.233.193.145.145 0 00.047.156 2.827 2.827 0 00.994-.039 3.927 3.927 0 00.613-.078l.691-.07a1.658 1.658 0 01.513-.109 2.082 2.082 0 01.9-.03.425.425 0 01.31.163c.163.381-.31.575-.5.854-.3.334-.621.652-.877.993.023.093-.124.164-.055.264.032.055.1.039.155.039a1.79 1.79 0 00.365-.318 1.741 1.741 0 01.574-.412 4.329 4.329 0 01.978-.458 1.626 1.626 0 01.947-.078 5.506 5.506 0 00.884.148 1.6 1.6 0 00.575-.116c.186-.086.21-.287.225-.458a1.943 1.943 0 00-.217-.893c-.116-.109-.14-.272-.3-.349a3.014 3.014 0 00-.846-.357 2.638 2.638 0 00-.606-.047 3.209 3.209 0 00-.776-.055 1.3 1.3 0 01-.388.024 3.6 3.6 0 00-.97.2c-.28.055-.59.132-.885.178-.474.155-.955.233-1.42.419a4.121 4.121 0 01-.698.236zm6.886 8.034a2.832 2.832 0 00-.916-.334 2.928 2.928 0 00-.737.055c-.264.085-.552.14-.8.248a7.567 7.567 0 01-.83.148 4.436 4.436 0 01-1.281-.016c-.21-.016-.419-.023-.613-.047a3.22 3.22 0 01-1.343-.52 2.636 2.636 0 01-1.017-1.148 2.525 2.525 0 01-.217-.893l-.046-.07c-.078 0-.147-.055-.21-.008a1.823 1.823 0 00-.21.706 2.31 2.31 0 00-.023.458 3.5 3.5 0 00.637 1.591 4.445 4.445 0 001.242.962 1.909 1.909 0 00.714.373 4.293 4.293 0 01.637.171l.365.07a3.124 3.124 0 01.66.086c.272.015.543.054.823.054a9 9 0 001.118 0 4.774 4.774 0 00.885-.078 2.807 2.807 0 00.768-.2 1.39 1.39 0 00.59-.4.993.993 0 00.186-.481 1.105 1.105 0 00-.382-.727zm-.638 18.765a.051.051 0 00-.069-.016 4.111 4.111 0 01-.963.723 6.677 6.677 0 01-1.312.66c-.147.008-.256.117-.411.109-.552.194-1.087.272-1.631.474-.147.007-.279.046-.435.062-.4 0-.745.054-1.141.077-.233.055-.473-.031-.714 0-.21-.031-.419-.1-.621-.132a2.6 2.6 0 01-1.117-.668 1.963 1.963 0 01-.489-.885 9.681 9.681 0 01-.21-.994c-.015-.318-.062-.621-.047-.938a13.655 13.655 0 01-.019-.743c.027-.377.065-.647.112-.981.008-.241.052-.474.07-.715.024-.32.054-.463.052-.746.031-.325.085-.667.109-1a1.367 1.367 0 00.092-.426c.109-.311.123-.7.239-1a5.7 5.7 0 00.238-.884 2.947 2.947 0 01.38-.978 2.566 2.566 0 00.078-1.235 4.535 4.535 0 00-1.353-1.335l-.627-.357c-.171-.047-.4-.163-.567-.031a.3.3 0 00-.062.334 1.769 1.769 0 01.233.7 7.826 7.826 0 01.224 1.715c-.031.148.013.334-.026.474 0 .31-.056.573-.053.915a6.969 6.969 0 01-.1.807l-.04.512a7.992 7.992 0 01-.13 1.172c-.047.481-.07.971-.109 1.452 0 .31-.023.644-.031.954l-.016.466c-.047.388.008.822-.023 1.218.015.559.054 1.048.093 1.6l.023.218.116.435a2.777 2.777 0 00.963 1.84c.287.14.551.349.83.52l.6.279a4.685 4.685 0 001.6.21 7.6 7.6 0 003.237-.963 5.726 5.726 0 001.444-.823 6.187 6.187 0 00.877-.768 3.676 3.676 0 00.714-1.079c.008-.074.063-.167-.008-.229zM77.46 74.128l.356.063c.013 0 .174-.015.174-.015l.474-.07a1.913 1.913 0 00.817-.412 1.386 1.386 0 00.513-.991v-.368c0-.007-.071-.46-.071-.46l-.261-.479a2.537 2.537 0 00-.837-.647l-.477-.286-.367-.21a1.25 1.25 0 01-.432-.576l-.006-.028a1.79 1.79 0 01-.072-.432.643.643 0 01.033-.21l.1-.183a.5.5 0 01.254-.3c-.01 0 .128-.048.128-.048l.111-.043a.723.723 0 01.357-.038h.23a2.047 2.047 0 01.548.19l.271.366.056.15c.036.13.081.293.289.261.051-.017.1-.056.083-.105l-.061-.576-.018-.206a.736.736 0 00-.132-.315c-.021-.012-.378-.088-.378-.088l-.179-.041a.451.451 0 01-.291-.04.7.7 0 00-.125 0 2.9 2.9 0 00-.912.087l-.253.137-.3.174a1.822 1.822 0 00-.537 1.11v.073a3.284 3.284 0 00.443 1.126 3.68 3.68 0 00.825.581l.361.264.275.218a1.622 1.622 0 01.481.535c0 .005.036.149.036.149a1.8 1.8 0 01.077.454v.032a1.1 1.1 0 01-.58.765 1.2 1.2 0 01-.712.027l-.214-.029-.083-.05a2.582 2.582 0 01-.607-.431l-.112-.226-.08-.167a.388.388 0 01-.081-.235c-.046-.091-.1-.124-.149-.115a.168.168 0 00-.12.115 1.268 1.268 0 00.054.537l.02.159.054.24c.043.162.133.394.368.43a1.73 1.73 0 00.659.177zm-1.976-.469a.558.558 0 01-.266-.059 3.052 3.052 0 01-.536-1.036 8.563 8.563 0 00-.324-.967 7.1 7.1 0 01-.362-1.136c0-.005-.1-.265-.1-.265a2.918 2.918 0 01-.193-.585c0-.008-.086-.2-.086-.2l-.179-.482-.087-.249-.147-.468a1.834 1.834 0 00-.033-.062c-.022-.048-.052-.113-.134-.113a.559.559 0 00-.081.052l-.418.279c-.093.41-.2.774-.329 1.175l-.084.17-.086.176-.341.93-.175.454-.142.393-.293.735-.1.295a3.785 3.785 0 01-.3.757c-.042.119-.145.166-.254.216l-.133.068c.015-.005-.328.026-.328.026a.258.258 0 00-.055.052.052.052 0 00-.005.032v.044a.108.108 0 00.055.118h.53a3.053 3.053 0 01.673-.016h.553a.1.1 0 00.081-.046.085.085 0 00.009-.08c-.056-.134-.178-.139-.287-.142s-.2-.007-.245-.1a.49.49 0 01.033-.332l.049-.186a2.888 2.888 0 01.2-.6l.146-.392a.668.668 0 01.127-.309 3.531 3.531 0 01.568.021l.332.01.357.006h.27l.214-.007a.248.248 0 01.091.14l.039.085c0-.011.2.638.2.638l.1.283.132.487a1 1 0 00-.046.114.267.267 0 01-.24.149c-.017 0-.1.01-.1.01-.059 0-.138-.011-.177.073a.144.144 0 00-.014.119.117.117 0 00.073.075l.432-.024h.174l.653.008.23.009a.9.9 0 00.35-.011l.112-.008c.066.007.156.017.2-.081a.216.216 0 00.029-.093.08.08 0 00-.032-.065.575.575 0 00-.3-.085zm-3.308-2.918l.078-.189.067-.171c.007-.014.145-.432.145-.432l.032-.084.087-.206.094-.237.037-.1.01-.021.1.259.1.233v.006a1 1 0 00.125.425l.1.327a3.131 3.131 0 00.252.669.109.109 0 01.008.034.025.025 0 01-.017.026l-.111.064h-.552l-.628.006a.156.156 0 01-.114-.06c.012 0 .133-.344.133-.344a1.169 1.169 0 01.041-.125l.014-.077zm18.119 2.947h-.011a.957.957 0 01-.564-.2.466.466 0 01-.114-.387l-.014-.209v-.459l.01-.31.014-.239v-.226l.007-.4v-.109l-.007-.156.009-.281.023-.469.011-.323-.012-.144a.275.275 0 01.008-.188l.008-.383v-.385l.006-.108a.374.374 0 01.063-.255 1.753 1.753 0 01.483-.121l.058-.009a.672.672 0 00.072-.054c.038-.086.024-.147-.03-.175h-.4l-.382.008-.587-.008-.38-.028-.473-.026a.218.218 0 00-.118.209c.029.142.172.128.258.119a.772.772 0 01.543.38c0 .049.032.5.032.5l.033.338-.007.166-.008.989.01.905v.56l.008.429a3.058 3.058 0 00-.051.482v.113c0 .087-.075.15-.154.216l-.094.085-.234.089-.252.094c-.047.071-.053.157.008.2a3.238 3.238 0 00.653.037l.544-.021h.511l.325-.016.085.017.124.011.051-.077c.007-.076.011-.153-.065-.181zm-3.466-.034a.553.553 0 01-.446-.207 6.536 6.536 0 01-.069-.945l.036-.552.011-.356.023-.477v-.407l-.018-.86-.005-.426.017-.211.014-.291.014-.246.01-.124a.491.491 0 01.3-.144l.157-.044c-.012 0 .023.01.023.01a.106.106 0 00.132-.031l.015-.15a.229.229 0 00-.212-.1h-.037l-1.058.015-.842.008a.5.5 0 00-.077.055.209.209 0 00.065.218 1.667 1.667 0 01.52.151.768.768 0 01.128.619l-.007.176a7.73 7.73 0 010 1.276c-.019.047-.07.059-.151.073l-.066.014-1.389.03h-.294a7.432 7.432 0 01-1.228-.056c-.068-.022-.082-.079-.082-.165v-.187l-.038-.45-.009-.227.024-.514.015-.446c.033-.159.188-.194.352-.231l.115-.029.036-.007c.054-.009.136-.023.152-.114v-.006a.2.2 0 00-.085-.194 4.127 4.127 0 00-.749.019h-1.163c-.087-.015-.187-.032-.25.072a.131.131 0 00-.018.064.173.173 0 00.072.13 1.378 1.378 0 01.506.136.755.755 0 01.192.476l.015.085.03.875-.019.406v.547l-.01.369.055.592-.039.447v.354l-.007.193v.076a.334.334 0 01-.037.174c0 .01-.02.13-.02.13a.336.336 0 01-.117.28l-.109.054a.786.786 0 01-.318.111l-.074.039v.11l.007.053a.1.1 0 00.042.078.179.179 0 00.144.006h.426l.862.023.691-.023a.158.158 0 00.094-.208c-.039-.089-.119-.077-.171-.069h-.06a1.119 1.119 0 01-.436-.15.245.245 0 01-.071-.2 1.344 1.344 0 01-.041-.622l.018-.247a1.778 1.778 0 000-.537l.021-.332.019-.374c.018-.03.06-.04.126-.049l.049-.008.639.008.731.016.674.008.91.023c.035.008.065.05.087.124v.373l.017.533-.012.442a2.834 2.834 0 00-.02.3 1.21 1.21 0 00.016.2.716.716 0 01-.2.369l-.422.131a.491.491 0 00-.056.067c-.021.136.027.182.069.2.016 0 .261-.017.261-.017a2.051 2.051 0 01.627 0l.173-.005a2.806 2.806 0 01.67.021l.32-.007a.316.316 0 00.06-.039.269.269 0 00.007-.056.244.244 0 00-.084-.184 1.709 1.709 0 00-.173-.035zm-17.021-2.533l.015-.158a.044.044 0 000-.009l-.125-.733-.124-.289-.111-.247a3.144 3.144 0 00-2.156-1.458l-.206-.014a1.192 1.192 0 01-.381-.055l-.807-.018-.483-.016-.445.028-.937.043-.073.014a.36.36 0 00-.234.108c-.034.134.058.19.131.235l.081.059c.026.012.1-.02.1-.02.025-.018.033-.022.045-.018.129.023.176.129.226.24l.055.113c.02.536.025 1.037.011 1.518a11.092 11.092 0 00.04 1.94l-.048 1.047a.531.531 0 01-.394.287l-.13.014-.171.031a.153.153 0 00-.028.174.159.159 0 00.128.115l.974-.007 1.644.023.3-.026.972-.115a1.669 1.669 0 00.563-.236l.156-.087a3.766 3.766 0 00.956-.924 2.5 2.5 0 00.38-1.095 1.756 1.756 0 00.076-.464zm-4.432 2.32a.507.507 0 01-.117-.348.854.854 0 01.008-.117l-.019-.332-.005-.261-.031-.258a24.893 24.893 0 01-.022-.987c0-.25 0-.487.014-.714l-.023-.7a1.464 1.464 0 00.035-.35v-.383a1.337 1.337 0 01.034-.333 1.416 1.416 0 01.829-.1l.354.042.3.027.357.073.467.105.093.062a2.8 2.8 0 01.563.436l.1.159a1.813 1.813 0 01.357.8v.038a1.679 1.679 0 00.08.452l.015.054a6.052 6.052 0 01.042.646 1.646 1.646 0 01-.293 1.055.049.049 0 00-.006.013c-.11.421-.521.674-.883.9l-.18.113-.292.138-.3.015a5.25 5.25 0 01-.788.013l-.238-.059a.7.7 0 01-.451-.199zm9.931 8.921a.039.039 0 00-.02 0 .427.427 0 01-.293-.047l-.125-.047c-.076-.012-.1-.061-.143-.141l-.1-.148a.4.4 0 00-.015-.047l-.362-.879-.085-.325a6.65 6.65 0 01-.311-.863l-.07-.189-.077-.234a.391.391 0 01-.055-.2c0-.016-.28-.814-.28-.814l-.143-.418-.144-.436-.114-.361-.124-.388a.147.147 0 00-.182-.093 1.017 1.017 0 01-.39.258c-.135.06-.149.185-.16.3l-.02.119-.172.584-.233.692-.1.309-.112.361c0-.009-.207.419-.207.419a3.013 3.013 0 01-.238.606 3.048 3.048 0 00-.24.61l-.067.173-.268.746-.093.156a.383.383 0 01-.184.22c.013 0-.225.071-.225.071l-.1.045c-.008 0-.106.021-.106.021-.059 0-.14 0-.166.088v.049c0 .043 0 .108.069.127l.155-.008a.477.477 0 00.264-.051c-.026 0 .317.034.317.034l.4.041c.014 0 .117.015.117.015l.176.007c-.021 0 .166.016.166.016h.109a.174.174 0 00.122-.162.187.187 0 00-.079-.176c-.011 0-.408-.082-.408-.082-.048-.035-.071-.057-.06-.087l.02-.117.042-.144a.575.575 0 00.081-.309.512.512 0 01.071-.28c0-.009.207-.561.207-.561l.059-.151c.033-.1.063-.2.16-.227l.172-.006.6.006.8-.015a.193.193 0 00.034.019c0 .027.209.635.209.635l.194.553.107.4.08.275a.328.328 0 01-.131.04l-.137.048c.006 0-.092.018-.092.018a.248.248 0 00-.188.083.166.166 0 00.04.2h.231l.164-.013.81-.015.393.005a1.306 1.306 0 00.547-.03.124.124 0 00.076-.145c-.024-.091-.139-.13-.173-.14zm-3.586-2.4a.165.165 0 00-.024-.035 1.854 1.854 0 01.149-.519l.1-.276.268-.728.149-.381c.018.01.033.018.047.068l.016.053.107.279.064.189.082.3.107.353.141.4.115.3c-.009.025-.018.025-.071.017l-.12.014.016-.006a4.439 4.439 0 01-1.147-.031zm-4.233-.338l-.129-.057-.118-.057-.107-.062c-.017-.006-.053-.018-.056-.027s0-.007.01-.025a1.192 1.192 0 00.621-.728 1.679 1.679 0 00.087-.688 1.442 1.442 0 00-.583-.908l-.1-.045a.449.449 0 00-.26-.064l-.159-.031-.162-.029-.346-.035-.437-.037-.758.016-.931.039-.153.008c-.094-.008-.2-.018-.27.085a.19.19 0 00.03.218c.021.008.4.016.4.016a.71.71 0 01.287.192 2.827 2.827 0 01.048.69l.006.388-.006.145.007.583-.023.728-.009.491v.657l.023.857-.039.127c-.023.1-.043.19-.149.232l-.167.048a.4.4 0 00-.294.153.324.324 0 000 .051.163.163 0 00.088.162 3.35 3.35 0 01.745-.027l.292.008a2.435 2.435 0 00.621.042h.367a2.858 2.858 0 001.149-.071 2.023 2.023 0 00.541-.235l.162-.088c.012-.009.106-.123.106-.123a.9.9 0 00.264-.473 1.68 1.68 0 00.158-.685l.022-.211a1.87 1.87 0 00-.325-.866 2.455 2.455 0 00-.453-.364zm-1.135 2.675l-.622.015-.1-.027a.363.363 0 01-.268-.158l-.068-.168c0-.023-.01-.19-.01-.19-.015-.239-.03-.485-.03-.723 0-.11 0-.219.012-.325a1.97 1.97 0 01-.038-.416c0-.1 0-.192.008-.286l.007-.181a.176.176 0 010-.024.052.052 0 01.008-.032c.017-.019.068-.018.113-.017l.152-.023c0 .006.408.042.408.042l.2.025.168.032a1.319 1.319 0 01.541.18.733.733 0 01.363.4l.047.088a.812.812 0 01.088.367l.058.315a1.153 1.153 0 01-.446.924 1.786 1.786 0 01-.588.183zm-1.132-4.763a.275.275 0 01.145-.273l.233-.037a1.576 1.576 0 01.9.2 1.014 1.014 0 01.461.9l-.03.245-.068.193a.424.424 0 01-.152.282l-.106.066a1.222 1.222 0 01-.57.239l-.333.034-.231.013c-.1.017-.2.025-.249-.034-.017-.2-.023-.4-.023-.6 0-.159 0-.32.006-.485l.006-.4.01-.3v-.043zm16.889 4.993l-.106-.016a3.005 3.005 0 01-.866-.719l-.05-.053-.108-.178-.182-.264a6.65 6.65 0 01-.571-.835l-.193-.307-.088-.169a.469.469 0 01-.011-.082.05.05 0 01.017-.044.632.632 0 00.271-.181l.184-.143a1.323 1.323 0 00.415-.519l.061-.111a1.108 1.108 0 00.076-.481l.005-.181-.025-.119-.016-.114c0-.022-.093-.356-.093-.356a1.192 1.192 0 00-.632-.57l-.164-.089c-.01 0-.266-.07-.266-.07l-.395-.091h-.351l-1.009-.009a1.407 1.407 0 01-.391.034l-.377.03a.337.337 0 00-.059-.013l-.134-.011h-.1a.189.189 0 00-.2.051l-.016.149a.124.124 0 00.138.093l.056.008c.027 0 .154.008.154.008l.141.017c.095.016.164.122.194.184a11.423 11.423 0 01.028 1.325l.008 1.257a2.987 2.987 0 00-.009.595l.009.349v.259a5.644 5.644 0 01-.067 1c-.051.1-.178.136-.3.167l-.064.017-.125.025a.27.27 0 00-.2.079c-.018.073-.032.167.04.208a.131.131 0 00.13.007 2.247 2.247 0 01.519 0h.472a2.654 2.654 0 00.8.008l.113.007.153-.005.052-.084c-.035-.194-.177-.223-.3-.25l-.179-.059c.014.02-.092-.093-.092-.093l-.069-.053c0-.014-.026-.172-.026-.172a2.034 2.034 0 01-.046-.378.839.839 0 01.008-.121V80.9l.008-.361.008-.37.038-.033c.002-.002.357 0 .357 0l.143.018.243.043a4.256 4.256 0 01.419.6 2.115 2.115 0 01.328.563l.188.374.448.52.267.2.276.2c.011.006.188.061.188.061l.319.109.662.026a.3.3 0 00.182-.184.207.207 0 00-.238-.137zm-3.417-2.8l-.2-.021c-.106.006-.173.006-.2-.059 0-.023-.024-.418-.024-.418l-.028-.443V78.5l-.005-.255.032-.325.039-.662a.333.333 0 01.057 0l.1-.011.41.02a1.907 1.907 0 01.516.069 1.334 1.334 0 01.785 1.025 1.143 1.143 0 01.017.2 1.107 1.107 0 01-.289.75 1.017 1.017 0 01-.45.348 4.872 4.872 0 01-.758.07z"/><path class="c" d="M90.158 33.251c.024-.063-.023-.1.008-.149-.031-.07.023-.141.008-.22l-.016-.008a2.23 2.23 0 00-.008-.4c-.016-.07.008-.149-.016-.2a1.1 1.1 0 00.023-.352l-.008-.008a.718.718 0 00.008-.228c-.078-.665.016-1.371-.023-2.06.016-.635-.039-1.317-.032-2.03-.078-.6.126-1.191.024-1.787a.453.453 0 00-.024-.29 4.426 4.426 0 01-.908-.016 6.718 6.718 0 01-1.316.023c-.588.031-1.151-.039-1.723.024-.361.016-.753-.078-1.105-.031-.078-.032-.125.047-.188 0-.062-.016-.2-.007-.251-.016-.023 0-.062-.024-.078.008-.032-.032-.086-.016-.125-.016s-.071-.039-.094 0l-.063-.023c-.078-.016-.2-.008-.25-.024a.3.3 0 00-.166 0c-.148-.016-.305.031-.462.031-1.057-.015-2.178.125-3.29.047-.188.039-.361-.071-.517.024-.682-.008-1.332.007-2.021-.016a16.277 16.277 0 00-1.857.031c-.439.016-.839-.016-1.238-.024-.251.055-.517-.031-.775 0-.392.016-.815-.063-1.23-.039a6.216 6.216 0 01-1 .047 11.052 11.052 0 00-1.137.007c-.462-.023-.964.032-1.425-.016-.048-.016-.087.047-.118.008-.345-.008-.666.007-1.01-.024a4.365 4.365 0 01-1.066.016 1.991 1.991 0 00-.54.055h.016c0 .008.016.016.007.024-.016-.008-.071.008-.063-.024-.031 0-.11-.055-.1 0-.047 0-.071-.07-.1-.023-.008-.024-.032.008-.032-.024-.024.016-.047.007-.047 0v.007l-.07-.007c-.032-.008-.048.055-.079.016-.009 0-.016 0-.016.008-.008-.047-.055.023-.078-.008-.086.016-.148-.031-.211.008l-.016-.008c-.047.008-.126-.024-.126.016a.624.624 0 00-.3 0c-.149-.024-.251.032-.384-.008a2 2 0 00-.72-.008c-.095.008-.032.117-.078.141h.015c0 .008.008.015.008.024h-.016l-.007.1h.007c-.039.055.031.094 0 .165h-.007v.031c-.016.054.029.153 0 .194l.015.08h.008c-.023.008.015.055-.016.063.016.039-.016.094 0 .126.016.055-.024.086 0 .125l-.007.016c.023.1-.024.212 0 .3a3.526 3.526 0 01-.016.627c.031.134.007.274.039.415-.008.071.008.149 0 .22.039.3-.008.564.047.854a2.283 2.283 0 01.462.007c.447-.047.862.016 1.316 0a10.72 10.72 0 011-.023c.2-.024.439.023.642-.008a4.141 4.141 0 01.431.016l.007-.016c.329 0 .627-.007.956 0 .744-.016 1.489-.039 2.17-.016.157-.031.321.024.485-.016.291-.063.6.024.894-.04a1.168 1.168 0 01.29.008l.4-.023c.157.063.384-.016.556.015.251-.039.51.04.752.024a4.686 4.686 0 011.151-.039 1.824 1.824 0 01.713-.008c.36.016.65 0 1 .031a8.469 8.469 0 011.254.071c.259.016.509 0 .745.016.251-.039.541.024.783-.031.313.023.572.007.869.031.267.024.572-.063.847-.016a6.911 6.911 0 01.893-.031v-.008c.557.016 1.16 0 1.786.031a9.821 9.821 0 001.442-.016c.36 0 .666.024 1 .024l.031.023a3.754 3.754 0 000 .838c.016.133-.016.337-.008.486a3.223 3.223 0 00.023.548 3.348 3.348 0 01.009.565 6.618 6.618 0 01.015.783 8.658 8.658 0 01.008 1.105 6.24 6.24 0 01.016 1.081c.008.455 0 .862 0 1.293-.008.58-.032 1.136-.039 1.677a16.741 16.741 0 000 1.684 3.519 3.519 0 00-.016.51h-.008c.016.313-.008.674-.023.995-.016 0-.032 0-.024.024l.016-.016.008.18c-.016.07.007.125-.008.188a1.1 1.1 0 01.008.423 1.989 1.989 0 00.047.533 6.867 6.867 0 01-.047.9 6.835 6.835 0 00.047.893 4.017 4.017 0 00.023.682l-.008.024a1.864 1.864 0 01-.071.588c-.024.07.016.172 0 .22.031.039 0 .086.008.125a3.2 3.2 0 00.023.6c.008.165 0 .321.016.478-.023.18-.023.368-.039.557a4.573 4.573 0 01.063.869c0 .525-.031 1.1-.024 1.622h-.007c.055.619-.031 1.206.023 1.779h.009c-.015.321-.015.587-.009.885l-.007-.008c.015.117.007.251.015.344-.009.149-.015.212-.015.345 0 .024-.016.086 0 .11a3.133 3.133 0 00-.047.4h-.008c-.008.047.016.047.008.094-.008.094-.008.211-.008.305-.032.054 0 .133-.008.172h-.008c.008.141.008.251.024.361l-.008.1.031.109a.609.609 0 00.36.024 6.769 6.769 0 001.379 0c.462.024.847-.008 1.316 0 .094.008.212.04.29-.016.007-.016.024-.055 0-.07-.008-.251 0-.526-.031-.784a8.872 8.872 0 01.013-1.014 4.4 4.4 0 00-.031-.784c.039-.314.047-.643.086-.964.023-.047-.031-.094.007-.141-.015-.031.016-.109-.007-.156.007-.024.023-.055 0-.078a.266.266 0 00.007-.173c.039-.282-.039-.532.008-.822.016-.282.047-.518.047-.807a3.665 3.665 0 01-.04-.509.256.256 0 00-.007-.11c-.008-.431-.023-.806-.023-1.222.008-.392.054-.814.031-1.214a2.579 2.579 0 01.009-.431 1.774 1.774 0 00-.009-.29l.016-.282c-.023-.023.024-.054-.016-.07.009-.008.016-.016.009-.024-.024-.407 0-.8-.032-1.238l.016-.118a5.263 5.263 0 010-.791 1.475 1.475 0 01.007-.666 1.578 1.578 0 01.009-.431c.007-.306 0-.643.007-.918l-.023-.563c.07-.533-.031-1.042 0-1.575a11.375 11.375 0 00.047-1.363 13.8 13.8 0 01.047-1.41l-.008-1.042.016-.117c.008-.338-.039-.714-.039-1.082zm-26.411-7.028zM75.695 52.03z"/><path class="c" d="M85.277 34.269c-.149-.212-.149-.478-.361-.642a1.75 1.75 0 00-.5-.493c-.157-.11-.306-.243-.462-.345-.141-.1-.274-.173-.407-.267-.2-.11-.415-.3-.626-.423-.369-.266-.76-.439-1.136-.69-.321-.188-.666-.384-.98-.6l-.11-.047c-.368-.22-.681-.494-1.05-.705a7.04 7.04 0 01-.705-.4c-.1-.016-.18-.1-.29-.055a.526.526 0 00-.243-.078c-.086.024-.18-.031-.282-.023a5.664 5.664 0 01-.627.055 1.416 1.416 0 00-1.034.251 7.2 7.2 0 00-.689.243c-.024.024-.063.008-.086.039a3.431 3.431 0 00-.494.2 7.435 7.435 0 00-1.018.556c-.117.047-.2.141-.321.165-.1.078-.244.133-.329.2a7.142 7.142 0 00-.854.509c-.157.016-.267.14-.415.14-.126.118-.345.118-.463.259a1.281 1.281 0 00-.07.541.555.555 0 01.047.149 1.715 1.715 0 01.078.345h-.011l.024.055c.008.07.047.18.047.251a2.112 2.112 0 00.125.5c.031.055-.023.086.024.133-.024.055.008.078.008.126.024.164.008.36.031.493a.62.62 0 00-.031.2h-.008c-.008.18-.024.313-.024.486a1.656 1.656 0 01-.117.815c-.055.086-.031.18-.094.25-.047.2-.118.392-.156.58a3.466 3.466 0 01-.235.768c-.2.243-.337.572-.572.807a.916.916 0 01-.2.282.448.448 0 01-.078.165 2.357 2.357 0 01-.368.368 1.8 1.8 0 01-.815.6 3.844 3.844 0 01-.666.525c-.368.306-.838.47-1.214.729a2.253 2.253 0 00-.556.337 5.877 5.877 0 01-.98.353 5.326 5.326 0 00-.924.258c-.04.023-.079 0-.1.023a3.412 3.412 0 01-.486.071c-.039.055-.094.062-.125.11-.211.227-.07.54.008.767h-.008a.2.2 0 00.094.142.692.692 0 01.1.266l.172.235h-.008a1.757 1.757 0 01.2.212c.149.11.2.329.321.478a2.6 2.6 0 00.525.642c.032.024.063.094.1.117a5.685 5.685 0 00.314.486c.078.133.235.227.32.376.095.086.2.219.283.282a6.052 6.052 0 00.517.478c.172.18.462.2.634.376l.009.024.422.211a2.837 2.837 0 00.775.282 2.649 2.649 0 001.137-.008 3.114 3.114 0 001.112-.368 3.528 3.528 0 00.407-.148c.267-.142.51-.314.776-.455a3.621 3.621 0 01.517-.329l.25-.2c.04-.015.055.008.079.039a.491.491 0 000 .11.216.216 0 00.016.1c0 .094.008.267.023.407l.008.007-.008.008a6.911 6.911 0 01.118.807h-.008a6.152 6.152 0 00.1.611c-.008.094.055.2.039.282.016.039.024.055.016.078h.008l.008.055a.972.972 0 00.188.353 1.715 1.715 0 00.212.47c.008.055.047.1.055.157.047.078.086.18.133.259.024.047.047.126.063.141a2.424 2.424 0 00.118.242c.157.165.212.361.353.526a.5.5 0 00.078.094 2.085 2.085 0 00.243.329 4.5 4.5 0 00.486.595h-.008c.014.015.049.03.04.051l.061.1c.039.055.156.141.188.188a.8.8 0 00.259.2 1.144 1.144 0 01.258.228h-.008a3.223 3.223 0 00.391.29 2.184 2.184 0 00.846.376c.156.055.329.024.486.086.173.125.392.016.572.071a5.144 5.144 0 00.627-.087 2.62 2.62 0 00.83-.392 4.877 4.877 0 01.47-.611 4.691 4.691 0 00.228-.494 2.557 2.557 0 00.235-1.159c.04-.4.04-.815.079-1.222.039-.462-.024-.94.055-1.379.016-.235-.031-.47 0-.713.016-.266.008-.5.04-.752 0-.3.07-.6.062-.893a.469.469 0 00.024-.274 1.317 1.317 0 00.055-.423c.078-.219.07-.486.235-.666.18-.11.314-.274.493-.392s.213-.305.267-.486c-.024-.306.055-.58.008-.893a3.771 3.771 0 00-.125-.525 2.859 2.859 0 00-.337-1.175 1.407 1.407 0 00-.454-.5 3.442 3.442 0 01-.353-.462.856.856 0 01-.008-.313.692.692 0 01.148-.181.472.472 0 01.248-.28c.07.01.107-.075.152-.1l.008.007c.016-.031.055-.046.062-.078.039 0 .07-.039.1-.062.008.016.047.007.039 0l-.007-.008c.016-.024.031 0 .039 0l-.016-.016.063-.007c0-.04.063-.031.1-.047.336-.243.72-.36 1.049-.611.235-.274.6-.353.862-.611a5.39 5.39 0 00.807-.674 1.158 1.158 0 00.3-.532 1.309 1.309 0 00.219-.564.525.525 0 00.094-.415l.008-.2a2.022 2.022 0 00-.168-1.105zm-3.714 5.014h.01c-.006.003-.01.005-.01-.001z"/><path class="d" d="M83.66 78.202l.044.041a.315.315 0 01.021.033l.057.093.085.074s.106.094.1.085l.028.017s.074.054.061.043l.045.027.079.053.082.05.156.061s.129.064.129.066l.07.022.081.024.063.02.131.047.083.023.2.056.05.007.31.058.213.039.159.031.092.01.068.006.14.018s.129.016.121.016h.137l.156.014h.206l.151.007.456-.009h.226l.193-.012.34-.043s.283-.029.283-.031.046-.006.046-.007h-.008l.108-.024.038-.007h.14s.055-.014.045-.01l.056-.018a.07.07 0 00.018-.006l.161-.028s.066-.005.049 0l.055-.02.092-.037.054-.014.045-.011.088-.022.067-.015.172-.054s.091-.037.1-.044.207-.1.2-.094l.15-.082.055-.029.113-.069s.307-.247.3-.236l.03-.038.022-.028.013-.035.1-.132.042-.155-.018-.065-.021-.048-.023-.039-.028-.047a1.655 1.655 0 00-.366-.353l-.162-.1-.059-.031-.108-.045-.174-.08-.321-.105-.026-.009s-.162-.05-.173-.051-.076-.026-.049-.013l-.115-.022-.189-.048-.065-.011-.354-.067h-.041l-.142-.016-.058-.007-.13-.024c-.008 0-.261-.015-.278-.018h-.152a.588.588 0 01-.065 0s-.07-.012-.058-.009l-.257.006h-.117l-.267.011h-.228s-.381.031-.4.028h-.06l-.131.01-.193.026-.182.03-.188.036h-.058l-.069.009-.083.011-.062.02-.119.033-.05.009-.056.009-.139.043-.09.024-.205.062-.052.018-.032.009s-.045.013-.07.023l-.118.048-.142.08-.226.131-.122.091s-.083.065-.085.065l-.045.054-.072.08-.022.027s-.09.14-.088.134l-.009.03s-.052.117-.042.1a.042.042 0 000 .013.124.124 0 00.016.051z"/><path class="d" d="M90.828 78.757v-.027c0-.013-.019-.028-.019-.029a.059.059 0 00-.007-.01h-.011l-.078.08-.035.042-.052.044a.4.4 0 00-.031.027l-.123.076-.057.048-.1.066s-.069.041-.063.036l-.161.072s-.063.017-.043 0l-.115.063s-.037.015-.022.006-.1.044-.1.042l-.032.014s-.112.033-.106.033l-.06.023-.084.029a.41.41 0 01-.048.014l-.124.038-.052.01-.373.086-.134.029-.394.061-.2.022-.2.019-.161.018h-.081l-.119.008-.235.007h-.533l-.3-.015-.181-.011-.234-.02-.115-.008-.086-.02-.273-.04-.1-.016-.348-.061-.176-.045-.136-.038-.089-.026-.187-.051-.108-.04-.133-.048-.355-.166-.2-.119s-.079-.057-.092-.068l-.185-.175h-.021a.243.243 0 01-.009.033l-.007.032v.016a.2.2 0 01.01.054c0 .009-.009.02-.011.03l.006.035.013.119.03.119s.031.125.034.132l.083.255.013.034s.166.409.164.407l.054.106.036.072.1.143.227.312.265.276.169.15.318.249.082.052.275.159.018.007s.06.029.068.031l.07.041.175.082.1.039.13.045.137.043.155.045.113.028.114.023s.283.034.3.034l.088.017h.589l.055-.012s.141-.025.16-.026l.259-.035.033-.005.131-.032.091-.032.173-.055.294-.112.072-.03.1-.04.019-.011.09-.032a.336.336 0 00-.038.011l.069-.045.157-.1.107-.068s.107-.07.123-.083l.335-.264.275-.293.222-.285.1-.137.073-.12.088-.157.066-.171.088-.221.077-.21.023-.085.032-.119.015-.05s.017-.083.017-.094l.038-.238.006-.054c.015.02.013.006.013.005z"/><path class="d" d="M89.112 81.91l-.1.034-.036.02-.045.02-.141.066-.134.048a.3.3 0 00.031-.009l-.033.021s-.109.059-.119.063l-.061.013-.144.042-.246.07-.125.018-.164.021-.04.008s-.326.031-.31.031h-.222a.209.209 0 00-.049 0h-.063s-.394-.016-.414-.022c0 0-.13-.023-.156-.024l-.141-.024-.117-.019-.246-.065-.062-.022-.07-.018-.115-.034-.081-.037-.142-.061-.06-.029-.119-.056s-.07-.036-.07-.044a.092.092 0 00-.033.007v.355l.005.083s.016.134.016.153a.523.523 0 00.126.193l.258.143.09.037.135.055.406.12.176.026.2.023.084.009h.058l.122.007s.2.005.187.007h.093l.133-.005.2-.013h.06l.291-.032.113-.02s.049-.006.023 0l.059-.023.042-.013.295-.074.147-.058s.144-.058.132-.051l.08-.051.16-.112s.127-.166.121-.153.006-.02.008-.022l.014-.266v-.295l.005-.036a.035.035 0 01-.012-.005z"/></svg>